<svg xmlns="http://www.w3.org/2000/svg" xmlns:xlink="http://www.w3.org/1999/xlink" viewBox="0 0 878.74 538.58"><defs><style>.cls-1,.cls-22,.cls-28,.cls-29,.cls-3,.cls-35,.cls-37,.cls-44{fill:none;}.cls-2{fill:#5badbb;}.cls-3{stroke:#fff;stroke-width:12px;}.cls-22,.cls-29,.cls-3,.cls-35,.cls-37,.cls-38,.cls-39,.cls-40,.cls-44,.cls-47{stroke-linecap:round;}.cls-22,.cls-28,.cls-29,.cls-3,.cls-43,.cls-44,.cls-47{stroke-miterlimit:10;}.cls-4{clip-path:url(#clip-path);}.cls-43,.cls-5{fill:#fff;}.cls-6{fill:#1d9995;}.cls-7{opacity:0.25;}.cls-8{clip-path:url(#clip-path-4);}.cls-9{clip-path:url(#clip-path-5);}.cls-10{clip-path:url(#clip-path-6);}.cls-11{clip-path:url(#clip-path-7);}.cls-12{clip-path:url(#clip-path-8);}.cls-13{clip-path:url(#clip-path-9);}.cls-14{clip-path:url(#clip-path-10);}.cls-15{clip-path:url(#clip-path-11);}.cls-16{clip-path:url(#clip-path-12);}.cls-17{fill:#878787;}.cls-18{fill:#575756;}.cls-19{fill:#9d9d9c;}.cls-20{fill:#b2b2b2;}.cls-21{fill:#ededed;}.cls-22,.cls-28,.cls-29{stroke:#1d1d1b;}.cls-22{stroke-width:0.29px;}.cls-23{fill:#854e99;}.cls-24{fill:#be1622;}.cls-25{fill:#9e1925;}.cls-26{fill:#fcc980;}.cls-27{fill:#e2b373;}.cls-28,.cls-29{stroke-width:1.15px;}.cls-30{fill:#706f6f;}.cls-31{fill:#6caa55;}.cls-32{fill:#f7fff4;}.cls-33{fill:#919191;fill-opacity:0.59;}.cls-34{fill:#8bc483;}.cls-35,.cls-37,.cls-38,.cls-39,.cls-40,.cls-43,.cls-44{stroke:#000;}.cls-35{stroke-miterlimit:11.34;}.cls-35,.cls-37,.cls-38,.cls-39,.cls-40,.cls-43,.cls-44,.cls-47{stroke-width:4px;}.cls-36{fill:#478ca5;}.cls-37,.cls-38,.cls-39,.cls-40{stroke-linejoin:round;}.cls-38{fill:#969696;}.cls-39{fill:#fffdaa;}.cls-40{fill:#757575;}.cls-41{fill:#ef2534;}.cls-42{fill:#26ed42;}.cls-45{fill:#e5d698;}.cls-46{fill:#ccb083;}.cls-47{fill:#c6a034;stroke:#ba8042;}.cls-48{fill:#c11a3e;}.cls-49{fill:#e21e3f;}.cls-50{fill:#d8d850;}.cls-51{fill:#33dd7c;}.cls-52{fill:#3fff95;}.cls-53{fill:#39ea84;}.cls-54{fill:#f2aadc;}</style><clipPath id="clip-path"><rect class="cls-1" x="49.34" y="63.28" width="84.72" height="84.72"/></clipPath><clipPath id="clip-path-4"><rect class="cls-1" x="69.9" y="70.19" width="5.01" height="10.03"/></clipPath><clipPath id="clip-path-5"><rect class="cls-1" x="84.1" y="69.51" width="3.74" height="3.74"/></clipPath><clipPath id="clip-path-6"><rect class="cls-1" x="89.3" y="133.66" width="5.01" height="10.03"/></clipPath><clipPath id="clip-path-7"><rect class="cls-1" x="103.5" y="132.97" width="3.74" height="3.74"/></clipPath><clipPath id="clip-path-8"><rect class="cls-1" x="108.92" y="82.03" width="3.74" height="3.74"/></clipPath><clipPath id="clip-path-9"><rect class="cls-1" x="101.91" y="70.76" width="5.04" height="8.21"/></clipPath><clipPath id="clip-path-10"><rect class="cls-1" x="117.87" y="93.05" width="3.74" height="8.75"/></clipPath><clipPath id="clip-path-11"><rect class="cls-1" x="76.37" y="127.86" width="3.74" height="8.75"/></clipPath><clipPath id="clip-path-12"><rect class="cls-1" x="63.93" y="79.52" width="58.61" height="48.34"/></clipPath><image id="image" width="120" height="120" xlink:href="../crossed-swords_2694.png"/></defs><title>Accueil-img</title><g id="Calque_2" data-name="Calque 2"><g id="svg8"><rect class="cls-2" width="878.74" height="538.58"/><path class="cls-3" d="M91.13,47.89a57.75,57.75,0,1,0,58.37,57.75H645.87"/><path class="cls-3" d="M235.67,221.14H732a57.75,57.75,0,1,0,58.37-57.75"/><g class="cls-4"><g class="cls-4"><g class="cls-4"><path class="cls-5" d="M103.53,101.72A12.78,12.78,0,1,1,90.75,88.94a12.78,12.78,0,0,1,12.78,12.78"/><path class="cls-6" d="M134.06,105.64A42.36,42.36,0,1,1,91.7,63.28a42.36,42.36,0,0,1,42.36,42.36"/><g class="cls-7"><g class="cls-8"><path class="cls-5" d="M74.91,75.2c0,2.77-1.12,5-2.5,5S69.9,78,69.9,75.2s1.12-5,2.51-5,2.5,2.25,2.5,5"/></g></g><g class="cls-7"><g class="cls-9"><path class="cls-5" d="M87.84,71.38A1.87,1.87,0,1,1,86,69.51a1.87,1.87,0,0,1,1.87,1.87"/></g></g><g class="cls-7"><g class="cls-10"><path class="cls-5" d="M94.31,138.67c0,2.77-1.12,5-2.5,5s-2.51-2.24-2.51-5,1.12-5,2.51-5,2.5,2.24,2.5,5"/></g></g><g class="cls-7"><g class="cls-11"><path class="cls-5" d="M107.25,134.84a1.88,1.88,0,1,1-1.88-1.87,1.88,1.88,0,0,1,1.88,1.87"/></g></g><g class="cls-7"><g class="cls-12"><path class="cls-5" d="M112.66,83.9A1.87,1.87,0,1,1,110.79,82a1.87,1.87,0,0,1,1.87,1.87"/></g></g><g class="cls-7"><g class="cls-13"><path class="cls-5" d="M107,74.86c0,2.27-1.13,4.11-2.52,4.11s-2.53-1.84-2.53-4.11,1.13-4.1,2.53-4.1,2.52,1.83,2.52,4.1"/></g></g><g class="cls-7"><g class="cls-14"><path class="cls-5" d="M121.61,97.43c0,2.42-.84,4.37-1.87,4.37s-1.87-2-1.87-4.37.83-4.38,1.87-4.38,1.87,2,1.87,4.38"/></g></g><g class="cls-7"><g class="cls-15"><path class="cls-5" d="M80.11,132.23c0,2.42-.83,4.38-1.87,4.38s-1.87-2-1.87-4.38.84-4.37,1.87-4.37,1.87,2,1.87,4.37"/></g></g><g class="cls-7"><g class="cls-16"><path class="cls-5" d="M114.84,109.69c-.25,0-.51,0-.76,0A24.17,24.17,0,0,0,70.33,90.65a3.21,3.21,0,0,0-2.55-1.57c-2.13,0-3.85,2.81-3.85,6.27,0,2.81,1.13,5.19,2.69,6-.07.78-.11,1.57-.11,2.36a24.08,24.08,0,0,0,2,9.69c-1.25,1-2.16,3.77-2.16,7,0,4.11,1.42,7.43,3.18,7.43s3.18-3.32,3.18-7.43c0-.19,0-.37,0-.55a24.16,24.16,0,0,0,35.16.79,7.7,7.7,0,1,0,7-11"/></g></g><path class="cls-17" d="M100.59,107.25a5.35,5.35,0,1,1,4.75-5.89,5.36,5.36,0,0,1-4.75,5.89"/><path class="cls-18" d="M79.4,98.2a5,5,0,1,1,4.48-5.54A5.05,5.05,0,0,1,79.4,98.2"/><path class="cls-19" d="M103.07,99.44a5.15,5.15,0,1,1,4.58-5.67,5.16,5.16,0,0,1-4.58,5.67"/><path class="cls-20" d="M104.51,101.38a2.12,2.12,0,1,1,2.27-2,2.13,2.13,0,0,1-2.27,2"/><polygon class="cls-21" points="85.2 100.07 87.21 103.54 83.2 103.54 85.2 100.07"/><polygon class="cls-22" points="85.2 100.07 87.21 103.54 83.2 103.54 85.2 100.07"/><path class="cls-23" d="M97.16,115.32v13.24H88.5V117a12.29,12.29,0,0,0,1.49.09h.75a12.66,12.66,0,0,0,6.42-1.73"/><path class="cls-24" d="M110.29,117.6v11H97.16V115.32a12.66,12.66,0,0,1-6.42,1.73H90A12.29,12.29,0,0,1,88.5,117v11.6H80.31v-11A13.69,13.69,0,0,1,82.63,110,12.91,12.91,0,0,0,92,114a13.15,13.15,0,0,0,12-8,13.72,13.72,0,0,1,6.32,11.56"/><path class="cls-25" d="M94,103.88h-2a13.71,13.71,0,0,0-10.48,4.86,12.07,12.07,0,0,0,1,1.22A12.91,12.91,0,0,0,92,114a13.15,13.15,0,0,0,12-8,13.72,13.72,0,0,1,6.32,11.56v11h1.95v-11a13.7,13.7,0,0,0-13.72-13.72H94Z"/><path class="cls-17" d="M97.24,89.12a5.91,5.91,0,1,1,5.26-6.5,5.91,5.91,0,0,1-5.26,6.5"/><path class="cls-26" d="M89.93,111.89H89.2A12.27,12.27,0,0,1,76.93,99.61v-.72A12.27,12.27,0,0,1,89.2,86.61h.73A12.27,12.27,0,0,1,102.2,98.89v.72a12.27,12.27,0,0,1-12.27,12.28"/><path class="cls-27" d="M89.88,86.63h-.72c-.26,0-.52,0-.77,0A12.26,12.26,0,0,1,100,98.91v.73a12.26,12.26,0,0,1-11.5,12.24c.22,0,.44,0,.66,0h.72a12.27,12.27,0,0,0,12.28-12.27V98.9A12.27,12.27,0,0,0,89.88,86.63"/><path class="cls-5" d="M83,97.13a4.8,4.8,0,1,1-4.8-4.8,4.8,4.8,0,0,1,4.8,4.8"/><circle class="cls-28" cx="78.24" cy="97.13" r="4.8"/><path class="cls-5" d="M95.12,97.13a4.8,4.8,0,1,1-4.79-4.8,4.79,4.79,0,0,1,4.79,4.8"/><circle class="cls-28" cx="90.33" cy="97.13" r="4.8"/><line class="cls-5" x1="83.04" y1="96.78" x2="85.88" y2="96.78"/><line class="cls-28" x1="83.04" y1="96.78" x2="85.88" y2="96.78"/><path class="cls-29" d="M95.43,96.78h3.2c2.89,0,2.77,3,2.77,3"/><path class="cls-18" d="M99.93,91.34a5,5,0,1,1,4.48-5.54,5,5,0,0,1-4.48,5.54"/><path class="cls-18" d="M84.87,86.33a5,5,0,1,1-5-5,5,5,0,0,1,5,5"/><path class="cls-17" d="M88.59,89.16a3.6,3.6,0,1,1-3.6-3.6,3.6,3.6,0,0,1,3.6,3.6"/><path class="cls-30" d="M97.51,82.7A8.67,8.67,0,1,1,88.85,74a8.66,8.66,0,0,1,8.66,8.66"/><path class="cls-19" d="M99.4,87.18A5.16,5.16,0,1,1,94.24,82a5.15,5.15,0,0,1,5.16,5.15"/><path class="cls-19" d="M103.75,91.27a2.13,2.13,0,1,1,1.9-2.34,2.13,2.13,0,0,1-1.9,2.34"/><path class="cls-17" d="M100.93,95.33a3.6,3.6,0,1,1,3.2-4,3.6,3.6,0,0,1-3.2,4"/></g></g></g><circle class="cls-31" cx="792.48" cy="221.14" r="41.46" transform="translate(-25.19 129.8) rotate(-9.22)"/><path id="path819" class="cls-32" d="M770.45,207.21l22.67-11.34,22.68,11.34v27.53l-22.68,11.34-22.67-11.34V220.17"/><path id="path838" class="cls-33" d="M793.12,246.08V218.55l22.68-11.34v27.53l-22.68,11.34"/><ellipse id="path840" cx="785.84" cy="207.21" rx="2.43" ry="1.62"/><ellipse id="path840-5" cx="793.86" cy="207.27" rx="2.43" ry="1.62"/><ellipse id="path840-0" cx="802.13" cy="207.27" rx="2.43" ry="1.62"/><ellipse id="path840-08" cx="780.8" cy="225.89" rx="1.97" ry="2.96" transform="translate(-2.52 8.91) rotate(-0.65)"/><ellipse id="path840-08-3" cx="808.72" cy="220.67" rx="2.96" ry="1.97" transform="translate(559.5 1021.06) rotate(-87.97)"/><ellipse id="path840-08-7" cx="801.83" cy="229.75" rx="2.96" ry="1.97" transform="translate(532.75 1019.25) rotate(-87.17)"/><ellipse id="path901" class="cls-34" cx="766.4" cy="192.63" rx="2.43" ry="3.24"/><circle id="path905" class="cls-34" cx="819.85" cy="203.16" r="0.81"/><ellipse id="path907" class="cls-34" cx="771.26" cy="197.49" rx="0.81" ry="1.62"/><circle id="path909" class="cls-34" cx="768.02" cy="201.54" r="0.81"/><ellipse id="path911" class="cls-34" cx="774.5" cy="246.08" rx="4.05" ry="4.86"/><ellipse id="path913" class="cls-34" cx="782.6" cy="252.56" rx="0.81" ry="1.62"/><path class="cls-34" d="M813.48,185.22a5.87,5.87,0,0,0-2.54,5c0,3.13,2.17,5.66,4.86,5.66s4.68-2.35,4.84-5.31A41.16,41.16,0,0,0,813.48,185.22Z"/><path id="path836" class="cls-35" d="M770.45,207.21l21,9.72"/><path class="cls-36" d="M170.56,268.57H49.34V208.89a39.15,39.15,0,0,0-39.15-39.15H0V291H0V492.17H170.56A57.47,57.47,0,0,0,228,434.71V326A57.46,57.46,0,0,0,170.56,268.57Z"/><path id="path819-6" class="cls-37" d="M770.45,207.21l22.67-11.34,22.68,11.34v27.53l-22.68,11.34-22.67-11.34V220.17"/><path class="cls-38" d="M141.57,372V385.8H78.2V372H75.44A31.4,31.4,0,0,0,44,403.35v15.7H173v-15.7A31.4,31.4,0,0,0,141.57,372Z"/><rect class="cls-39" x="78.68" y="309.21" width="62.89" height="76.59"/><line class="cls-37" x1="90.4" y1="321.12" x2="125.87" y2="321.57"/><line class="cls-37" x1="90.86" y1="336.65" x2="125.61" y2="337.09"/><line class="cls-37" x1="91.65" y1="353.17" x2="126.13" y2="353.61"/><line class="cls-37" x1="91.14" y1="369.68" x2="126.61" y2="370.13"/><rect class="cls-40" x="67.74" y="404.67" width="83.73" height="32.35"/><line class="cls-37" x1="76.42" y1="411.02" x2="84.72" y2="411.02"/><line class="cls-37" x1="76.35" y1="421.06" x2="84.65" y2="421.06"/><line class="cls-37" x1="76.35" y1="430.16" x2="84.65" y2="430.16"/><line class="cls-37" x1="91.84" y1="411.49" x2="100.13" y2="411.49"/><line class="cls-37" x1="91.77" y1="421.53" x2="100.07" y2="421.53"/><line class="cls-37" x1="91.77" y1="430.63" x2="100.07" y2="430.63"/><line class="cls-37" x1="106.54" y1="410.78" x2="114.84" y2="410.78"/><line class="cls-37" x1="106.48" y1="420.83" x2="114.77" y2="420.83"/><line class="cls-37" x1="106.48" y1="429.93" x2="114.77" y2="429.93"/><line class="cls-37" x1="121.25" y1="410.78" x2="129.55" y2="410.78"/><line class="cls-37" x1="121.18" y1="420.83" x2="129.48" y2="420.83"/><line class="cls-37" x1="121.18" y1="429.93" x2="129.48" y2="429.93"/><line class="cls-37" x1="135.26" y1="410.78" x2="143.56" y2="410.78"/><line class="cls-37" x1="135.19" y1="420.83" x2="143.49" y2="420.83"/><line class="cls-37" x1="135.19" y1="429.93" x2="143.49" y2="429.93"/><circle class="cls-41" cx="64.64" cy="385.8" r="5.43"/><circle class="cls-42" cx="73.57" cy="393" r="3.67"/><polygon class="cls-43" points="146.26 10.98 146.26 47.89 132.05 69.4 146.26 69.4 160.46 69.4 250.63 69.4 250.63 10.98 146.26 10.98"/><line class="cls-44" x1="164.47" y1="24.74" x2="230.73" y2="24.74"/><line class="cls-44" x1="164.47" y1="38.06" x2="230.73" y2="38.06"/><line class="cls-44" x1="164.47" y1="51.38" x2="230.73" y2="51.38"/><path class="cls-36" d="M620,303.34H820.52A57.46,57.46,0,0,1,878,360.8V469.48a57.46,57.46,0,0,1-57.46,57.46H620a0,0,0,0,1,0,0V303.34A0,0,0,0,1,620,303.34Z" transform="translate(1497.95 830.28) rotate(-180)"/><polygon class="cls-43" points="749.26 153.06 749.26 174.14 757.37 186.41 749.26 186.41 741.15 186.41 689.67 186.41 689.67 153.06 749.26 153.06"/><use transform="translate(709.1 158.42) scale(0.19)" xlink:href="#image"/><path class="cls-45" d="M851,439.29v-69.6a16.86,16.86,0,0,0-16.86-16.86h-60a14,14,0,0,0-4.45-.34,14.23,14.23,0,0,0,1.15,28.42v69.36a16.86,16.86,0,0,0,16.86,16.86h59.1c1.72.53,3.58.1,5.51-.08,6.67-.6,12.11-5.29,12.82-12A14.24,14.24,0,0,0,851,439.29Z"/><circle class="cls-46" cx="769.15" cy="366.27" r="5.42"/><circle class="cls-46" cx="784.83" cy="453.66" r="5.42"/><line class="cls-47" x1="787.14" y1="373.3" x2="825.68" y2="373.3"/><line class="cls-47" x1="787.14" y1="382.06" x2="835.6" y2="382.06"/><line class="cls-47" x1="787.14" y1="390.82" x2="812.22" y2="390.82"/><line class="cls-47" x1="811.37" y1="401.76" x2="835.6" y2="401.76"/><rect class="cls-48" x="784.49" y="418.27" width="7.05" height="23.56" rx="3.52"/><circle class="cls-49" cx="790.25" cy="415.15" r="8.68"/><rect class="cls-49" x="779.41" y="415.15" width="9.7" height="21.21" rx="4.85"/><circle class="cls-50" cx="790.25" cy="415.15" r="4.72"/><polygon class="cls-51" points="775.47 93.36 764.35 105.11 770.02 105.11 770.02 140.06 780.92 140.06 780.92 105.11 786.08 105.11 775.47 93.36"/><polygon class="cls-52" points="807.59 27.71 785.84 50.69 796.94 50.69 796.94 119 818.25 119 818.25 50.69 828.33 50.69 807.59 27.71"/><polygon class="cls-53" points="842.22 93.36 826.75 109.7 834.64 109.7 834.64 158.3 849.8 158.3 849.8 109.7 856.97 109.7 842.22 93.36"/><polygon class="cls-51" points="259.73 413.65 248.6 425.41 254.28 425.41 254.28 460.35 265.18 460.35 265.18 425.41 270.33 425.41 259.73 413.65"/><polygon class="cls-52" points="291.85 348 270.09 370.99 281.19 370.99 281.19 439.3 302.5 439.3 302.5 370.99 312.58 370.99 291.85 348"/><polygon class="cls-53" points="326.48 413.65 311 430 318.9 430 318.9 478.59 334.06 478.59 334.06 430 341.23 430 326.48 413.65"/><polygon class="cls-54" points="320.14 20.91 311.14 12.33 311.13 16.69 284.29 16.61 284.26 24.98 311.1 25.06 311.09 29.02 320.14 20.91"/><polygon class="cls-54" points="370.48 45.73 352.88 28.97 352.86 37.49 300.4 37.33 300.35 53.69 352.81 53.86 352.78 61.6 370.48 45.73"/><polygon class="cls-54" points="319.98 72.17 307.46 60.24 307.44 66.31 270.13 66.19 270.09 77.83 307.41 77.95 307.39 83.46 319.98 72.17"/><polygon class="cls-43" points="60.06 226.17 60.06 245.19 52.75 256.27 60.06 256.27 67.38 256.27 113.84 256.27 113.84 226.17 60.06 226.17"/><use transform="matrix(-0.17, 0, 0, 0.17, 96.3, 231.01)" xlink:href="#image"/><polygon class="cls-54" points="710.82 396.36 704.22 390.07 704.21 393.27 684.54 393.21 684.52 399.34 704.19 399.41 704.18 402.31 710.82 396.36"/><polygon class="cls-54" points="747.72 414.56 734.82 402.27 734.8 408.52 696.35 408.4 696.31 420.39 734.76 420.51 734.74 426.19 747.72 414.56"/><polygon class="cls-54" points="710.7 433.93 701.53 425.19 701.51 429.64 674.16 429.55 674.13 438.08 701.49 438.17 701.47 442.21 710.7 433.93"/></g></g></svg>