<?xml version="1.0" encoding="UTF-8" standalone="no"?>
<!-- Created with Inkscape (http://www.inkscape.org/) -->

<svg
   xmlns:dc="http://purl.org/dc/elements/1.1/"
   xmlns:cc="http://creativecommons.org/ns#"
   xmlns:rdf="http://www.w3.org/1999/02/22-rdf-syntax-ns#"
   xmlns:svg="http://www.w3.org/2000/svg"
   xmlns="http://www.w3.org/2000/svg"
   xmlns:xlink="http://www.w3.org/1999/xlink"
   xmlns:sodipodi="http://sodipodi.sourceforge.net/DTD/sodipodi-0.dtd"
   xmlns:inkscape="http://www.inkscape.org/namespaces/inkscape"
   width="310mm"
   height="190mm"
   viewBox="0 0 310 190"
   version="1.1"
   id="svg8"
   inkscape:version="0.92.3 (2405546, 2018-03-11)"
   sodipodi:docname="bgdyvinaris.svg">
  <defs
     id="defs2">
    <linearGradient
       inkscape:collect="always"
       id="linearGradient954">
      <stop
         style="stop-color:#d2d9e2;stop-opacity:1"
         offset="0"
         id="stop950" />
      <stop
         style="stop-color:#c185b4;stop-opacity:1"
         offset="1"
         id="stop952" />
    </linearGradient>
    <linearGradient
       inkscape:collect="always"
       id="linearGradient997">
      <stop
         style="stop-color:#685d79;stop-opacity:1;"
         offset="0"
         id="stop993" />
      <stop
         style="stop-color:#d2d9e2;stop-opacity:1"
         offset="1"
         id="stop995" />
    </linearGradient>
    <linearGradient
       inkscape:collect="always"
       id="linearGradient910">
      <stop
         style="stop-color:#685d79;stop-opacity:1;"
         offset="0"
         id="stop906" />
      <stop
         style="stop-color:#d2d9e2;stop-opacity:1"
         offset="1"
         id="stop908" />
    </linearGradient>
    <linearGradient
       inkscape:collect="always"
       xlink:href="#linearGradient910"
       id="linearGradient912"
       x1="165.40033"
       y1="170.47073"
       x2="166.19347"
       y2="220.05098"
       gradientUnits="userSpaceOnUse"
       gradientTransform="translate(-9.9160868,14.279165)" />
    <linearGradient
       inkscape:collect="always"
       xlink:href="#linearGradient997"
       id="linearGradient999"
       x1="77.369659"
       y1="230.93367"
       x2="79.205917"
       y2="327.42368"
       gradientUnits="userSpaceOnUse" />
    <linearGradient
       id="linearGradient1019"
       inkscape:collect="always">
      <stop
         id="stop1015"
         offset="0"
         style="stop-color:#a885c1;stop-opacity:1" />
      <stop
         id="stop1017"
         offset="1"
         style="stop-color:#624b6b;stop-opacity:1" />
    </linearGradient>
    <linearGradient
       id="linearGradient995"
       inkscape:collect="always">
      <stop
         id="stop991"
         offset="0"
         style="stop-color:#624b6b;stop-opacity:1;" />
      <stop
         id="stop993-6"
         offset="1"
         style="stop-color:#3a4b63;stop-opacity:1" />
    </linearGradient>
    <linearGradient
       id="linearGradient976"
       inkscape:collect="always">
      <stop
         id="stop972"
         offset="0"
         style="stop-color:#6e5a8b;stop-opacity:1" />
      <stop
         id="stop974"
         offset="1"
         style="stop-color:#c185b4;stop-opacity:1" />
    </linearGradient>
    <style
       id="style2">.cls-1{fill:#564a68;}.cls-2{fill:#624b6b;}.cls-3{fill:#a885c1;}.cls-4,.cls-5{fill:#d2d9e2;}.cls-5{font-size:109.41px;font-family:ReemKufi-Regular, Reem Kufi;}.cls-6{fill:#e8ebef;}.cls-7,.cls-8{fill:none;stroke:#d2d9e2;stroke-miterlimit:10;stroke-width:8px;}.cls-8{stroke-linecap:round;}</style>
    <linearGradient
       gradientTransform="translate(-151.57001,-60.279999)"
       gradientUnits="userSpaceOnUse"
       y2="611.79224"
       x2="1008.326"
       y1="60.264362"
       x1="1028.819"
       id="linearGradient978"
       xlink:href="#linearGradient976"
       inkscape:collect="always" />
    <linearGradient
       gradientTransform="translate(-151.57001,-60.279999)"
       gradientUnits="userSpaceOnUse"
       y2="0.83987594"
       x2="985.52399"
       y1="134.72527"
       x1="987.06335"
       id="linearGradient997-6"
       xlink:href="#linearGradient995"
       inkscape:collect="always" />
    <linearGradient
       gradientUnits="userSpaceOnUse"
       y2="313.85001"
       x2="1362.03"
       y1="423.60715"
       x1="1362.9227"
       id="linearGradient1013"
       xlink:href="#linearGradient1019"
       inkscape:collect="always" />
    <linearGradient
       gradientUnits="userSpaceOnUse"
       y2="339.57001"
       x2="202.67999"
       y1="443.72"
       x1="203.35999"
       id="linearGradient1021"
       xlink:href="#linearGradient1019"
       inkscape:collect="always" />
    <linearGradient
       inkscape:collect="always"
       xlink:href="#linearGradient954"
       id="linearGradient956"
       x1="264.42526"
       y1="253.64256"
       x2="263.93463"
       y2="177.2724"
       gradientUnits="userSpaceOnUse" />
  </defs>
  <sodipodi:namedview
     id="base"
     pagecolor="#ffffff"
     bordercolor="#666666"
     borderopacity="1.0"
     inkscape:pageopacity="0.0"
     inkscape:pageshadow="2"
     inkscape:zoom="0.65132332"
     inkscape:cx="558.8745"
     inkscape:cy="528.42544"
     inkscape:document-units="mm"
     inkscape:current-layer="layer1"
     showgrid="true"
     inkscape:snap-grids="false"
     inkscape:window-width="1600"
     inkscape:window-height="837"
     inkscape:window-x="-8"
     inkscape:window-y="-8"
     inkscape:window-maximized="1">
    <inkscape:grid
       type="xygrid"
       id="grid815"
       spacingx="2.6458333"
       spacingy="2.6458333" />
  </sodipodi:namedview>
  <metadata
     id="metadata5">
    <rdf:RDF>
      <cc:Work
         rdf:about="">
        <dc:format>image/svg+xml</dc:format>
        <dc:type
           rdf:resource="http://purl.org/dc/dcmitype/StillImage" />
        <dc:title />
      </cc:Work>
    </rdf:RDF>
  </metadata>
  <g
     inkscape:label="Calque 1"
     inkscape:groupmode="layer"
     id="layer1"
     transform="translate(0,-107)">
    <rect
       style="opacity:1;fill:#624b6b;fill-opacity:1;stroke:none;stroke-width:3;stroke-linecap:round;stroke-linejoin:round;stroke-miterlimit:4;stroke-dasharray:none;stroke-opacity:1;paint-order:normal"
       id="rect828"
       width="309.5625"
       height="190.5"
       x="0"
       y="106.5" />
    <path
       style="fill:#8f6a96;fill-opacity:1;stroke:none;stroke-width:0.26458332px;stroke-linecap:butt;stroke-linejoin:miter;stroke-opacity:1"
       d="m 26.458333,138.25 v 13.22917 l 3.289927,8.28219 -3.966435,1.58657 v 7.93287 l 14.675808,5.55301 16.659026,-2.77651 7.93287,-13.88252 7.93287,7.13958 -4.759722,-19.03888 10.709372,19.43553 5.949654,-9.91609 8.329512,7.93287 7.932865,-12.29595 -1.586569,-17.84895 -6.742941,4.36308 -3.966432,-7.53623 -12.692592,-9.1228 -1.983218,7.13958 -9.519444,-2.7765 -11.106015,7.13958 -17.055671,-7.13958 -1.983216,21.0221 z"
       id="path840"
       inkscape:connector-curvature="0" />
    <path
       style="fill:#c185b4;fill-opacity:1;stroke:none;stroke-width:0.99999994px;stroke-linecap:butt;stroke-linejoin:miter;stroke-opacity:1"
       d="m 298.32617,119.02148 c -9.55692,0 -20.23895,0.93773 -24.73633,4.68555 -8.99475,7.49564 -52.46875,9.74414 -52.46875,9.74414 0,0 -32.98026,-2.24867 -35.97851,0 -2.99825,2.24871 -21.73828,63.71289 -21.73828,63.71289 l 23.23632,10.49414 44.97461,-6.74609 7.95508,3.50586 6.28711,-11.00195 29.98242,26.98437 -17.99023,-71.95703 33.02344,59.92969 29.93945,-23.95117 35.97852,-15.74024 -40.47657,-48.72266 c 0,0 -8.43136,-0.9375 -17.98828,-0.9375 z"
       transform="matrix(0.26458333,0,0,0.26458333,0,107)"
       id="path842"
       inkscape:connector-curvature="0" />
    <path
       style="fill:#8f6a96;fill-opacity:1;stroke:none;stroke-width:0.26458332px;stroke-linecap:butt;stroke-linejoin:miter;stroke-opacity:1"
       d="m 99.847065,139.65673 17.950035,-7.01174 7.2922,8.13361 12.62112,-3.08516 4.76798,-5.32891 4.20704,5.88985 0.28047,-5.04845 0.56093,-3.6461 c 0,0 3.08517,5.88986 4.48751,6.17033 1.40235,0.28047 3.6461,1.12187 3.6461,1.12187 l -2.66445,-5.74962 1.26211,1.68282 0.84141,-4.76798 2.38398,-1.82305 3.78634,0.14024 -0.84141,-6.4508 2.38399,-3.50586 3.08516,1.40234 11.77971,0.42071 2.66446,5.60938 6.31056,2.10352 2.10352,8.13361 c 0,0 7.01173,2.80469 7.99337,3.36563 0.98165,0.56094 5.04845,9.53596 5.04845,9.53596 l 10.4066,1.11144 3.5698,-6.74294 1.38825,-5.75133 5.55301,-5.94965 9.1228,18.2456 10.90769,5.55301 1.38825,-6.14797 6.14798,11.70098 -0.19832,5.55301 -7.73455,-2.18154 -5.94965,5.55301 -12.49427,-4.16476 -7.53623,-6.54462 -14.27916,2.97483 -13.88253,-3.76811 -8.32951,-5.15637 -10.70937,3.56979 -0.79329,-5.75133 -13.88252,-4.75972 -9.32112,3.37147 -8.92448,-1.98322 -13.88252,-0.59496 -4.36308,-2.37986 -6.74294,7.3379 -10.11441,1.38825"
       id="path860"
       inkscape:connector-curvature="0"
       sodipodi:nodetypes="ccccccccccccccccccccccccccccccccccccccccccccccccc" />
    <path
       style="fill:#8f6a96;fill-opacity:1;stroke:none;stroke-width:0.26458332px;stroke-linecap:butt;stroke-linejoin:miter;stroke-opacity:1"
       d="m 241.75419,189.11297 7.53623,-6.74294 7.3379,5.94966 c 0,0 4.16476,-10.9077 4.75972,-12.6926 0.59497,-1.78489 7.73456,-17.65063 7.73456,-17.65063 l 2.97482,13.6842 c 0,0 4.95805,7.13958 4.75972,7.93287 -0.19833,0.79329 -2.77651,8.13119 -2.77651,8.13119 l 0.59497,7.73455 3.17314,-6.74294 1.38827,3.37147 2.57818,-8.13119 v -4.95805 l 0.19831,-5.75133 1.7849,12.29595 -1.38824,5.15637 5.35466,-7.93287 c 0,0 -0.9916,-7.13959 -0.9916,-8.32952 0,-1.18993 0.7933,-8.92447 1.38827,-7.93286 0.59497,0.9916 3.56978,17.84895 3.56978,17.84895 l 3.17315,17.05567 -4.95805,7.53623 -5.553,18.04727 -18.44392,2.18154 -4.95805,-15.27077 -3.56979,5.75133 2.77651,-19.23721 -3.17315,9.71777 -1.18993,-5.15637 -1.18993,8.92448 -5.35469,9.32112 -3.37147,-9.1228 -7.3379,0.19832 -0.99161,-8.32951 6.54461,-7.73455 z"
       id="path862"
       inkscape:connector-curvature="0" />
    <path
       style="fill:url(#linearGradient956);fill-opacity:1;stroke:none;stroke-width:0.26458332px;stroke-linecap:butt;stroke-linejoin:miter;stroke-opacity:1"
       d="m 271.07343,184.39142 -13.88288,14.16347 -6.17068,6.59133 4.29018,3.76773 0.52503,-3.93568 1.19011,5.15679 3.17293,-9.71775 -1.63814,11.35021 2.43137,2.13527 c 0,0 9.52127,4.14504 10.36267,4.84622 0.84142,0.70117 8.69458,-1.26246 8.69458,-1.26246 l -1.40251,-6.59081 9.25576,-10.65775 -5.49164,-9.53843 -2.32285,-1.29243 -0.85008,2.68046 -1.38856,-3.37137 -3.17294,6.74273 -0.59531,-7.73441 c 0,0 0.34041,-0.97793 0.48474,-1.39009 z"
       id="path866"
       inkscape:connector-curvature="0" />
    <path
       style="fill:url(#linearGradient912);fill-opacity:1;stroke:none;stroke-width:0.26458332px;stroke-linecap:butt;stroke-linejoin:miter;stroke-opacity:1"
       d="m 140.41178,187.92304 -0.79328,13.48587 -3.96644,-2.7765 0.39665,3.5698 -7.13959,-1.18993 -6.34629,5.94964 c 0,0 1.58657,11.89931 3.17315,12.29596 1.58657,0.39663 18.24559,2.37986 18.24559,2.37986 l 0.39665,11.8993 4.36308,-0.79329 1.98321,-7.13958 4.75973,3.96643 0.79328,4.75972 7.13959,-4.36307 -0.39665,-4.36308 2.37986,-14.27917 2.77651,6.74294 0.79328,-6.74294 7.93287,13.48589 v -6.74295 l 7.53623,7.93288 3.96643,-4.75972 v -5.94965 l 4.36308,-4.75972 -11.8993,-18.64225 -6.74294,4.75972 -18.64224,-11.8993 -3.17315,3.56979 z"
       id="path885"
       inkscape:connector-curvature="0" />
    <path
       style="fill:#d2d9e2;fill-opacity:1;stroke:none;stroke-width:0.99999994px;stroke-linecap:butt;stroke-linejoin:miter;stroke-opacity:1"
       d="m 986.42383,404.04297 c 0,0 35.98587,15.66628 39.16597,18.31641 3.1803,2.65008 32.8614,-4.77149 32.8614,-4.77149 l -2.6426,-12.41406 z"
       transform="matrix(0.26458333,0,0,0.26458333,0,107)"
       id="path914"
       inkscape:connector-curvature="0" />
    <path
       style="fill:url(#linearGradient999);fill-opacity:1;stroke:none;stroke-width:0.26458332px;stroke-linecap:butt;stroke-linejoin:miter;stroke-opacity:1"
       d="m 37.823489,254.77356 7.292202,-8.41408 4.767977,3.08517 7.85314,-4.76798 c 0,0 3.92657,11.49924 3.92657,12.62112 0,1.12187 2.804692,-7.57268 2.804692,-7.57268 l 0.56094,3.64611 3.36563,-12.62112 1.121878,6.73126 7.85314,-16.54769 0.841407,7.01173 4.487511,-5.32891 2.524222,6.17032 4.767977,6.4508 2.243754,-1.68282 5.328916,2.24375 5.328925,-4.4875 14.86487,26.36411 5.88985,-5.32892 15.42582,-1.40234 11.77971,-7.85314 10.65783,8.97501 3.36563,-3.6461 7.85314,3.92657 6.17032,12.90159 -4.4875,3.92657 -9.81643,-6.17032 -2.52422,2.24375 -2.24376,-1.96329 -5.88985,3.36564 -16.54769,-8.13361 -3.08516,3.6461 -2.52423,-5.88986 -5.32891,5.32892 -33.65632,10.65783 -1.682816,-6.73126 -8.13361,3.36563 -10.657834,-4.48751 -13.742995,-2.24375 -2.804692,7.85314 -1.121878,-4.48751 -1.963285,1.96328 -2.804692,-3.6461 -4.487508,7.01174 -10.938304,-15.42582 8.133609,-0.8414 z"
       id="path968"
       inkscape:connector-curvature="0" />
    <path
       style="fill:#523d62;fill-opacity:1;stroke:none;stroke-width:0.26458332px;stroke-linecap:butt;stroke-linejoin:miter;stroke-opacity:1"
       d="m 43.47274,219.31 22.157073,-6.45079 15.986749,3.36563 0.560938,-4.20704 4.207039,-9.81642 3.646101,8.69455 0.280469,-6.73127 3.92657,9.81643 2.243754,-11.49924 -11.779707,-9.25549 -10.377366,7.01173 -11.499239,-8.97501 -8.975018,-4.48751 -6.731262,7.01173 -2.524226,-4.48751 -3.365629,2.80469 -3.92657,-3.36563 -10.938303,22.99848 5.328917,5.88986 11.218772,-7.01173 z"
       id="path1001"
       inkscape:connector-curvature="0" />
    <path
       style="fill:#523d62;fill-opacity:1;stroke:none;stroke-width:0.32345548px;stroke-linecap:butt;stroke-linejoin:miter;stroke-opacity:1"
       d="m 276.2227,249.95608 -28.20975,-0.3461 -17.49789,-9.62905 -2.15416,4.72036 -8.41579,9.9821 -1.16792,-11.46663 -2.72506,7.7723 -1.09641,-12.87852 -6.719,12.64928 10.48038,15.01905 14.63318,-4.50473 10.25225,14.59117 8.8982,8.44416 10.36908,-5.80314 1.35406,6.14701 4.93485,-2.08156 3.39358,5.33437 20.98216,-23.0014 -4.13471,-8.78582 -15.61722,4.20511 z"
       id="path1001-0"
       inkscape:connector-curvature="0" />
    <path
       style="fill:#523d62;stroke:none;stroke-width:0.26458332px;stroke-linecap:butt;stroke-linejoin:miter;stroke-opacity:1;fill-opacity:1"
       d="m 87.658206,196.25256 13.089234,-5.35469 c 0,0 1.58657,-3.76812 2.77651,-6.14798 1.18992,-2.37986 4.75972,-11.8993 5.75133,-12.49426 0.9916,-0.59497 8.72615,1.78489 8.72615,1.78489 l 3.17315,-2.18154 2.18154,5.75133 -2.57818,-0.79329 -4.95805,2.18154 -2.57818,8.52784 -23.005322,10.70937 -3.851849,3.96561 z"
       id="path1050"
       inkscape:connector-curvature="0" />
    <g
       id="g141"
       transform="matrix(0.26458333,0,0,0.26458333,5.4230181,-85.760835)">
      <rect
         style="fill:url(#linearGradient978);fill-opacity:1"
         id="rect8"
         height="547.5"
         width="1740"
         y="0"
         x="0"
         class="cls-1" />
      <path
         style="fill:url(#linearGradient997-6);fill-opacity:1"
         inkscape:connector-curvature="0"
         id="path10"
         d="M -18.750007,58.590001 -7.3242188e-6,106.14 9.7699927,82.360001 V 106.14 L 24.719993,46.360001 c 0,0 -4.08,48.91 0,53 4.08,4.089999 5.43,47.549999 5.43,47.549999 l 12.28,35.3 12.23,-67.92 13.58,34 12.19,-29.93 3.39,-66.559999 7.47,-13.59 15.629997,36 14.94,-27.85 53,12.23 38.72,-12.23 34.64,-20.38 28.53,36.68 v 31.93 l 12.9,40.069999 V 93.910001 l 11.55,43.469999 -4.07,36 19,-32.6 V 104.1 l 9.51,-25.809999 8.15,-38.72 4.76,17.66 5.43,37.36 14.25,-73.36 6.11,40.75 7.47,-25.81 40.08,15.63 67.92,-21.08 43.47,21.73 26.49,26.5 14.27,19.69 54.39,6.139999 23.77,-16.309999 -7.47,-14.26 -15.62,8.15 -15,-27.85 14.32,-19.7 9.51,14.27 6.79,10.19 7.47,-18.34 v -23.78 l 9.51,31.93 17,-21.06 45.51,17 17.66,27.17 29.89,-23.09 4.07,50.6 17,21.399999 12.22,-80.149999 6.79,31.24 10.19,-31.24 11.55,-20.38 24.45,24.45 22,-20.37 10.57,14.94 3.39,16.3 10.19,-21.73 6.12,-13.59 c 0,0 -2,21.06 0,24.45 2,3.39 4.07,29.21 4.07,29.21 l 7.47,-19.7 v -23.81 l 5.44,-13.59 12.14,29.23 26.49,2 22.51,-17.64 5.43,19.7 8.15,-19.7 8.83001,29.21 17,-8.83 26.5,-4.76 6.09,-21.71 11.55,61.81 8.15,-26.49 -3.4,-22.42 3.4,-6.11 15.62,11.55 v 23.09 l -8.15,14.94 -14.94,15.63 -13.59,-15.63 -0.68,-16.3 -4.75,26.49 24.45,27.169999 21.73,-12.9 33.29,-12.909999 -6.79,-34.64 15.62,-19.7 -4.76,-21.06 18.25,41.44 13.59,19.7 v 16.3 l 17.66,-10.19 10.19,-23.1 42.15,20.42 14.26,-19 40.08,-18.34 34.64,2 17.66,14.27 -15.62,5.43 15.62,21.74 4.76,27.169999 15.62,-27.169999 4.75,-27.85 12.91,-18.34 4.07,15.62 5.44,10.19 11.55,-24.45 20.37,21 19,-12.22 18.34,-17 v -11.5 l 27.85,14.94 26.49,12.91 c 0,0 6.11,16.3 6.79,18.34 0.68,2.04 41.44,8.15 41.44,8.15 l 8.83,-15.63 15.62,42.119999 17,-31.249999 17,-17 24.46,24.45 13.58,46.869999 17.64,-45.449999 7.47,47.549999 -8.15,31.92 8.15,28.53 15,-38 V 117 c 0,0 6.79,-16.3 8.15,-13.58 1.36,2.72 14.26,70.64 14.26,70.64 l 26,59.09 24.27,-154.859999 8.83,-118.19 -597.06,-8.83 -939.40001,-6.8 -308.419997,-4.75 z"
         class="cls-2" />
      <polygon
         transform="translate(-151.57001,-60.279999)"
         style="fill:#c185b4;fill-opacity:1"
         id="polygon12"
         points="1983.08,481.78 1672.65,513.28 1261.72,481.78 1360.89,400.78 1504.14,363.56 1631.23,395.64 1676.06,395.64 1814.63,408.49 1891.57,384.33 1943.99,373.94 "
         class="cls-3" />
      <polygon
         transform="translate(-151.57001,-60.279999)"
         style="fill:#c185b4;fill-opacity:1"
         id="polygon14"
         points="721.36,465.71 410.93,497.21 0,465.71 99.17,384.71 242.42,347.49 369.51,379.57 414.34,379.57 552.91,392.42 629.85,368.26 682.26,357.87 "
         class="cls-3" />
      <polygon
         transform="translate(-151.57001,-60.279999)"
         style="fill:#d2d9e2"
         id="polygon16"
         points="147.72,464.79 99.16,464.79 99.16,695.74 1956.59,695.74 1956.59,464.79 346.58,464.79 350.18,463.78 280.89,398.21 236.06,328.78 236.06,293.43 173.57,272.38 142.33,193.59 79.84,456.47 "
         class="cls-4" />
      <path
         style="fill:#a885c1"
         inkscape:connector-curvature="0"
         id="path18"
         d="m -52.410007,396.19 70.94,20.25 62.57,-10.12 36.669997,37.4 h 85.59 l 93.74,-23.77 42.79,23.77 h 71.32 l 55,-23.77 36.68,14.94 58.71,0.68 138.97,-27.15 89.66,11.55 79.77,23.75 h 86 L 1057.2,459.34 h 87.62 l 75.4,-15.62 34.64,-35.32 57.06,19.36 42.79,-31.59 40.72,22.44 95.77,40.75 73.37,-15.64 c 0,0 38.71,-1.36 44.83,0 6.12,1.36 53,-19 59.09,-16 6.09,3 52.19,-3.74 52.19,-3.74 l 71.75,51.68 114.49,161 c 0,0 -625.59,91.7 -701,93.74 C 1130.51,732.44 50.529993,604.04 36.269993,602 c -14.26,-2.04 -88.68,-205.81 -88.68,-205.81 z"
         class="cls-3" />
      <path
         style="fill:#624b6b"
         inkscape:connector-curvature="0"
         id="path20"
         d="m 400.63999,483.12 -15.62,-21.74 -4.75,-27.17 -15.63,27.17 -4.75,27.85 -12.91,18.34 -4.07,-15.62 -5.48,-10.23 -11.5,24.49 -20.38,-21.06 -19,12.23 -18.34,17 v 11.55 l -27.85,-14.94 -26.49,-12.91 c 0,0 -6.13,-16.36 -6.81,-18.36 -0.68,-2 -41.44,-8.15 -41.44,-8.15 l -8.83,15.62 -15.62,-42.11 -17,31.24 -17,17 -24.449997,-24.45 -13.59,-46.87 -17.66,45.51 -7.47,-47.54 3.22,20.46 -12.26,-57.91 -5.9,15 v 34.64 c 0,0 -6.8,16.3 -8.15,13.59 -1.35,-2.71 -14.2700003,-70.64 -14.2700003,-70.64 l -25.9999997,-59.1 -24.21,154.88 -8.84,118.19 597.049997,8.83 939.40001,6.79 308.39,4.76 -53,-118.87 -18.76,-47.55 -9.77,23.77 v -23.77 l -15,59.77 c 0,0 4.08,-48.9 0,-53 -4.08,-4.1 -5.43,-47.54 -5.43,-47.54 l -12.23,-35.32 -12.22,67.92 -13.59,-34 -12.22,29.88 -3.4,66.57 -7.38,13.65 -15.62,-36 -14.95,27.84 -53,-12.22 -38.72,12.22 -34.64,20.38 -28.53,-36.68 v -31.92 l -12.9,-40.08 v 40.76 l -11.55,-43.47 4.08,-36 -19,32.6 v 36.68 l -9.51,25.81 -8.15,38.72 -4.76,-17.66 -5.43,-37.36 -14.32,73.36 -6.12,-40.76 -7.47,25.81 -40.08,-15.62 -67.92,21.06 -43.41,-21.72 4.45,-23.43 -14.26,-19.7 -54.34,-6.11 -23.85,16.24 7.47,14.26 15.63,-8.15 -16,24.79 -14.27,19.7 -9.51,-14.26 -6.79,-10.19 -7.47,18.34 v 23.81 l -9.51,-31.92 -17,21 -45.51,-17 -17.66001,-27.17 -29.89,23.1 -4.07,-50.61 -22.21,13.3 -6.94,45.51 -6.79,-31.25 -10.19,31.25 -11.55,20.38 -24.45,-24.46 -22,20.38 -10.56,-14.94 -3.4,-16.31 -10.23,21.76 -6.1,13.59 c 0,0 2,-21.06 0,-24.46 -2,-3.4 -4.08,-29.2 -4.08,-29.2 l -7.47,19.69 v 23.78 l -5.45,13.58 -12.23,-29.21 -26.49,-2 -22.42,17.66 -5.42,-19.75 -8.15,19.7 -8.83,-29.21 -17,8.83 -26.46,4.77 -6.12,21.74 -11.55,-61.83 -8.15,26.49 3.39,22.41 -3.39,6.1 -15.63,-11.55 -9.81,-15.62 8.15,-15 1.74,-12.9 19.37,-16.93 -23.47,-2 -33.29,12.91 -8.45,33.28 -0.38,21.06 4.76,21 -18.34,-41.43 -13.59,-19.7 v -16.3 l -17.66,10.19 -10.18,23.09 -42.12,-20.38 -14.26,19 -40.08,18.34 -34.64,-2"
         class="cls-2" />
      <g
         style="fill:url(#linearGradient1013);fill-opacity:1"
         id="g1001">
        <path
           class="cls-2"
           d="m 1362.03,313.85 -45,45 h 90 z m -32.14,38.58 12.86,-12.86 12.86,12.86 z m 19.29,-12.86 h 25.71 l -12.86,12.86 z m 32.14,0 12.86,12.86 h -25.75 z"
           id="path22"
           inkscape:connector-curvature="0"
           style="fill:url(#linearGradient1013);fill-opacity:1" />
        <path
           class="cls-2"
           d="M 1323.43,365.28 H 1317 v 6.44 h 6.43 v 51.43 h 77.15 v -51.43 h 6.42 v -6.43 h -83.57 z m 25.72,32.15 -12.86,-19.29 H 1362 Z"
           id="path24"
           inkscape:connector-curvature="0"
           style="fill:url(#linearGradient1013);fill-opacity:1" />
      </g>
      <path
         style="fill:#624b6b"
         inkscape:connector-curvature="0"
         id="path26"
         d="m 512.99999,340.5 -63,63 h 126 z m -45,54 18,-18 18,18 z m 27,-18 h 36 l -18,18 z m 45,0 18,18 h -36 z"
         class="cls-2" />
      <path
         style="fill:#624b6b"
         inkscape:connector-curvature="0"
         id="path28"
         d="m 458.99999,412.5 h -9 v 9 h 9 v 72 h 108 v -72 h 9 v -9 z m 36,45 -18,-27 h 36 z"
         class="cls-2" />
      <text
         y="243.45001"
         x="596.38"
         style="font-size:109.41000366px;font-family:ReemKufi-Regular, 'Reem Kufi';fill:#d2d9e2"
         id="text30"
         class="cls-5">Dyvinaris</text>
      <path
         style="fill:#624b6b"
         inkscape:connector-curvature="0"
         id="path32"
         d="M 971.99999,430.5 H 1098 l -63,-63 z m 72.00001,-9 18,-18 18,18 z m -9,0 -18,-18 h 36 z m -9,0 H 989.99999 L 1008,403.5 Z"
         class="cls-2" />
      <path
         style="fill:#624b6b"
         inkscape:connector-curvature="0"
         id="path34"
         d="m 980.99999,439.5 h -9 v 9 h 9 v 72 H 1089 v -72 h 9 v -9 z M 1035,457.5 h 36 l -18,27 z"
         class="cls-2" />
      <path
         style="fill:#d2d9e2"
         inkscape:connector-curvature="0"
         id="path36"
         d="m 647.31999,317.36 -36,36 h 72 z m -25.71,30.85 10.28,-10.28 10.29,10.28 z m 15.43,-10.28 h 20.57 l -10.29,10.28 z m 25.71,0 10.29,10.28 h -20.61 z"
         class="cls-4" />
      <path
         style="fill:#d2d9e2"
         inkscape:connector-curvature="0"
         id="path38"
         d="m 616.42999,358.5 h -5.15 v 5.14 h 5.15 v 41.15 h 61.71 v -41.15 h 5.14 v -5.14 z m 20.57,25.71 -10.29,-15.42 h 20.57 z"
         class="cls-4" />
      <polygon
         transform="translate(-151.57001,-60.279999)"
         style="fill:#d2d9e2"
         id="polygon40"
         points="1779.92,228.75 1786.49,251.75 1786.49,281.33 1730.64,281.33 1737.62,263.87 1758.57,260.38 1762.06,253.4 1758.57,246.41 1741.11,246.41 1743.78,232.04 1760.21,225.47 "
         class="cls-4" />
      <path
         style="fill:#d2d9e2"
         inkscape:connector-curvature="0"
         id="path42"
         d="m 1551.99,228.03 a 10.77,10.77 0 0 0 -10.77,10.77 v 13.67 l 20.39,31.41 -38.4,94.26 -7,27.93 h 118.69 v -178 z m 74.21,55.85 h -48.88 a 1.75,1.75 0 0 1 0,-3.49 h 48.88 a 1.75,1.75 0 0 1 0,3.49 z"
         class="cls-4" />
      <polygon
         transform="translate(-151.57001,-60.279999)"
         style="fill:#e8ebef"
         id="polygon44"
         points="1765.55,281.33 1776.02,274.34 1786.49,253.4 1786.49,281.33 "
         class="cls-6" />
      <polygon
         transform="translate(-151.57001,-60.279999)"
         style="fill:#e8ebef"
         id="polygon46"
         points="1734.13,466.35 1786.49,466.35 1786.49,344.17 1779.51,410.5 1769.04,452.39 "
         class="cls-6" />
      <polygon
         transform="translate(-151.57001,-60.279999)"
         style="fill:#e8ebef"
         id="polygon48"
         points="1692.79,312.75 1713.18,344.17 1727.15,340.67 1776.02,340.67 1786.49,344.17 1786.49,333.69 1776.02,337.18 1727.15,337.18 "
         class="cls-6" />
      <polygon
         transform="translate(-151.57001,-60.279999)"
         style="fill:#e8ebef"
         id="polygon50"
         points="1762.06,253.4 1758.57,246.41 1741.11,246.41 1751.58,242.92 1758.57,242.92 "
         class="cls-6" />
      <polygon
         transform="translate(-151.57001,-60.279999)"
         style="fill:#d2d9e2"
         id="polygon52"
         points="537.19,308.04 532.85,323.24 532.85,342.79 569.77,342.79 565.16,331.25 551.31,328.94 549,324.33 551.31,319.71 562.85,319.71 561.08,310.21 550.22,305.86 "
         class="cls-4" />
      <path
         style="fill:#d2d9e2"
         inkscape:connector-curvature="0"
         id="path54"
         d="m 381.27999,287.12 v 117.7 h 78.46 l -4.61,-18.46 -25.39,-62.31 13.48,-20.77 v -9 a 7.12,7.12 0 0 0 -7.12,-7.12 z m 4.61,35.78 a 1.16,1.16 0 0 1 1.16,-1.16 h 32.31 a 1.16,1.16 0 0 1 0,2.31 h -32.31 a 1.16,1.16 0 0 1 -1.16,-1.15 z"
         class="cls-4" />
      <polygon
         transform="translate(-151.57001,-60.279999)"
         style="fill:#e8ebef"
         id="polygon56"
         points="546.69,342.79 539.77,338.17 532.85,324.33 532.85,342.79 "
         class="cls-6" />
      <polygon
         transform="translate(-151.57001,-60.279999)"
         style="fill:#e8ebef"
         id="polygon58"
         points="567.46,465.1 532.85,465.1 532.85,384.33 537.46,428.18 544.39,455.87 "
         class="cls-6" />
      <polygon
         transform="translate(-151.57001,-60.279999)"
         style="fill:#e8ebef"
         id="polygon60"
         points="594.79,363.56 581.31,384.33 572.08,382.02 539.77,382.02 532.85,384.33 532.85,377.41 539.77,379.71 572.08,379.71 "
         class="cls-6" />
      <polygon
         transform="translate(-151.57001,-60.279999)"
         style="fill:#e8ebef"
         id="polygon62"
         points="549,324.33 551.31,319.71 562.85,319.71 555.92,317.4 551.31,317.4 "
         class="cls-6" />
      <g
         style="fill:url(#linearGradient1021);fill-opacity:1"
         id="g1005">
        <path
           class="cls-2"
           d="m 157.67999,384.57 h 90 l -45,-45 z m 51.43,-6.43 12.86,-12.86 12.85,12.86 z m -6.43,0 -12.86,-12.86 h 25.72 z m -6.43,0 h -25.71 l 12.89,-12.86 z"
           id="path64"
           inkscape:connector-curvature="0"
           style="fill:url(#linearGradient1021);fill-opacity:1" />
        <path
           class="cls-2"
           d="m 164.10999,391 h -6.43 v 6.43 h 6.43 v 51.42 h 77.14 v -51.42 h 6.43 V 391 Z m 38.57,12.85 h 25.75 l -12.86,19.29 z"
           id="path66"
           inkscape:connector-curvature="0"
           style="fill:url(#linearGradient1021);fill-opacity:1" />
      </g>
      <path
         style="fill:#d2d9e2"
         inkscape:connector-curvature="0"
         d="m 1156.97,168.45 c -4.06,0 -8.12,3.25 -8.12,9.74 h 16.24 c 0,-6.47 -4.06,-9.74 -8.12,-9.74 z m -11.36,11 v 6.49 h 22.72 v -6.49 z m 3.24,9.74 v 61.73 h 16.24 v -61.69 z m -3.24,64.93 v 6.5 h 22.72 v -6.5 z m 3.24,7.8 c 0,13 16.24,13 16.24,0 z"
         class="cls-4"
         id="rect880" />
      <ellipse
         style="fill:none;stroke:#d2d9e2;stroke-width:8px;stroke-miterlimit:10"
         ry="59.740002"
         rx="59.52"
         cy="221.04999"
         cx="1157.52"
         class="cls-7"
         id="path904" />
      <line
         style="fill:none;stroke:#d2d9e2;stroke-width:8px;stroke-linecap:round;stroke-miterlimit:10"
         id="line70"
         y2="264.04999"
         x2="1044"
         y1="264.04999"
         x1="611.32001"
         class="cls-8" />
    </g>
  </g>
</svg>
