<?xml version="1.0" encoding="UTF-8" standalone="no"?>
<svg
   xmlns:dc="http://purl.org/dc/elements/1.1/"
   xmlns:cc="http://creativecommons.org/ns#"
   xmlns:rdf="http://www.w3.org/1999/02/22-rdf-syntax-ns#"
   xmlns:svg="http://www.w3.org/2000/svg"
   xmlns="http://www.w3.org/2000/svg"
   xmlns:xlink="http://www.w3.org/1999/xlink"
   xmlns:sodipodi="http://sodipodi.sourceforge.net/DTD/sodipodi-0.dtd"
   xmlns:inkscape="http://www.inkscape.org/namespaces/inkscape"
   viewBox="0 0 1740 547.50001"
   version="1.1"
   id="svg74"
   sodipodi:docname="Dyvinaris.svg"
   inkscape:version="0.92.3 (2405546, 2018-03-11)"
   width="1740"
   height="547.5">
  <metadata
     id="metadata78">
    <rdf:RDF>
      <cc:Work
         rdf:about="">
        <dc:format>image/svg+xml</dc:format>
        <dc:type
           rdf:resource="http://purl.org/dc/dcmitype/StillImage" />
        <dc:title>Dyvinaris</dc:title>
      </cc:Work>
    </rdf:RDF>
  </metadata>
  <sodipodi:namedview
     pagecolor="#ffffff"
     bordercolor="#666666"
     borderopacity="1"
     objecttolerance="10"
     gridtolerance="10"
     guidetolerance="10"
     inkscape:pageopacity="0"
     inkscape:pageshadow="2"
     inkscape:window-width="1600"
     inkscape:window-height="837"
     id="namedview76"
     showgrid="false"
     inkscape:zoom="0.70771212"
     inkscape:cx="896.7264"
     inkscape:cy="264.26379"
     inkscape:window-x="-8"
     inkscape:window-y="-8"
     inkscape:window-maximized="1"
     inkscape:current-layer="svg74"
     fit-margin-top="0"
     fit-margin-left="0"
     fit-margin-right="0"
     fit-margin-bottom="0"
     showguides="false" />
  <defs
     id="defs4">
    <linearGradient
       inkscape:collect="always"
       id="linearGradient1019">
      <stop
         style="stop-color:#a885c1;stop-opacity:1"
         offset="0"
         id="stop1015" />
      <stop
         style="stop-color:#624b6b;stop-opacity:1"
         offset="1"
         id="stop1017" />
    </linearGradient>
    <linearGradient
       inkscape:collect="always"
       id="linearGradient1011">
      <stop
         style="stop-color:#a885c1;stop-opacity:1"
         offset="0"
         id="stop1007" />
      <stop
         style="stop-color:#624b6b;stop-opacity:1"
         offset="1"
         id="stop1009" />
    </linearGradient>
    <linearGradient
       inkscape:collect="always"
       id="linearGradient995">
      <stop
         style="stop-color:#624b6b;stop-opacity:1;"
         offset="0"
         id="stop991" />
      <stop
         style="stop-color:#3a4b63;stop-opacity:1"
         offset="1"
         id="stop993" />
    </linearGradient>
    <linearGradient
       inkscape:collect="always"
       id="linearGradient976">
      <stop
         style="stop-color:#6e5a8b;stop-opacity:1"
         offset="0"
         id="stop972" />
      <stop
         style="stop-color:#c185b4;stop-opacity:1"
         offset="1"
         id="stop974" />
    </linearGradient>
    <style
       id="style2">.cls-1{fill:#564a68;}.cls-2{fill:#624b6b;}.cls-3{fill:#a885c1;}.cls-4,.cls-5{fill:#d2d9e2;}.cls-5{font-size:109.41px;font-family:ReemKufi-Regular, Reem Kufi;}.cls-6{fill:#e8ebef;}.cls-7,.cls-8{fill:none;stroke:#d2d9e2;stroke-miterlimit:10;stroke-width:8px;}.cls-8{stroke-linecap:round;}</style>
    <linearGradient
       inkscape:collect="always"
       xlink:href="#linearGradient976"
       id="linearGradient978"
       x1="1028.819"
       y1="60.264362"
       x2="1008.326"
       y2="611.79224"
       gradientUnits="userSpaceOnUse"
       gradientTransform="translate(-151.57001,-60.279999)" />
    <linearGradient
       inkscape:collect="always"
       xlink:href="#linearGradient995"
       id="linearGradient997"
       x1="987.06335"
       y1="134.72527"
       x2="985.52399"
       y2="0.83987594"
       gradientUnits="userSpaceOnUse"
       gradientTransform="translate(-151.57001,-60.279999)" />
    <linearGradient
       inkscape:collect="always"
       xlink:href="#linearGradient1011"
       id="linearGradient1013"
       x1="1362.9227"
       y1="423.60715"
       x2="1362.03"
       y2="313.85001"
       gradientUnits="userSpaceOnUse" />
    <linearGradient
       inkscape:collect="always"
       xlink:href="#linearGradient1019"
       id="linearGradient1021"
       x1="203.35999"
       y1="443.72"
       x2="202.67999"
       y2="339.57001"
       gradientUnits="userSpaceOnUse" />
  </defs>
  <title
     id="title6">Dyvinaris</title>
  <rect
     class="cls-1"
     x="0"
     y="0"
     width="1740"
     height="547.5"
     id="rect8"
     style="fill:url(#linearGradient978);fill-opacity:1" />
  <path
     class="cls-2"
     d="M -18.750007,58.590001 -7.3242188e-6,106.14 9.7699927,82.360001 V 106.14 L 24.719993,46.360001 c 0,0 -4.08,48.91 0,53 4.08,4.089999 5.43,47.549999 5.43,47.549999 l 12.28,35.3 12.23,-67.92 13.58,34 12.19,-29.93 3.39,-66.559999 7.47,-13.59 15.629997,36 14.94,-27.85 53,12.23 38.72,-12.23 34.64,-20.38 28.53,36.68 v 31.93 l 12.9,40.069999 V 93.910001 l 11.55,43.469999 -4.07,36 19,-32.6 V 104.1 l 9.51,-25.809999 8.15,-38.72 4.76,17.66 5.43,37.36 14.25,-73.36 6.11,40.75 7.47,-25.81 40.08,15.63 67.92,-21.08 43.47,21.73 26.49,26.5 14.27,19.69 54.39,6.139999 23.77,-16.309999 -7.47,-14.26 -15.62,8.15 -15,-27.85 14.32,-19.7 9.51,14.27 6.79,10.19 7.47,-18.34 v -23.78 l 9.51,31.93 17,-21.06 45.51,17 17.66,27.17 29.89,-23.09 4.07,50.6 17,21.399999 12.22,-80.149999 6.79,31.24 10.19,-31.24 11.55,-20.38 24.45,24.45 22,-20.37 10.57,14.94 3.39,16.3 10.19,-21.73 6.12,-13.59 c 0,0 -2,21.06 0,24.45 2,3.39 4.07,29.21 4.07,29.21 l 7.47,-19.7 v -23.81 l 5.44,-13.59 12.14,29.23 26.49,2 22.51,-17.64 5.43,19.7 8.15,-19.7 8.83001,29.21 17,-8.83 26.5,-4.76 6.09,-21.71 11.55,61.81 8.15,-26.49 -3.4,-22.42 3.4,-6.11 15.62,11.55 v 23.09 l -8.15,14.94 -14.94,15.63 -13.59,-15.63 -0.68,-16.3 -4.75,26.49 24.45,27.169999 21.73,-12.9 33.29,-12.909999 -6.79,-34.64 15.62,-19.7 -4.76,-21.06 18.25,41.44 13.59,19.7 v 16.3 l 17.66,-10.19 10.19,-23.1 42.15,20.42 14.26,-19 40.08,-18.34 34.64,2 17.66,14.27 -15.62,5.43 15.62,21.74 4.76,27.169999 15.62,-27.169999 4.75,-27.85 12.91,-18.34 4.07,15.62 5.44,10.19 11.55,-24.45 20.37,21 19,-12.22 18.34,-17 v -11.5 l 27.85,14.94 26.49,12.91 c 0,0 6.11,16.3 6.79,18.34 0.68,2.04 41.44,8.15 41.44,8.15 l 8.83,-15.63 15.62,42.119999 17,-31.249999 17,-17 24.46,24.45 13.58,46.869999 17.64,-45.449999 7.47,47.549999 -8.15,31.92 8.15,28.53 15,-38 V 117 c 0,0 6.79,-16.3 8.15,-13.58 1.36,2.72 14.26,70.64 14.26,70.64 l 26,59.09 24.27,-154.859999 8.83,-118.19 -597.06,-8.83 -939.40001,-6.8 -308.419997,-4.75 z"
     id="path10"
     inkscape:connector-curvature="0"
     style="fill:url(#linearGradient997);fill-opacity:1" />
  <polygon
     class="cls-3"
     points="1891.57,384.33 1943.99,373.94 1983.08,481.78 1672.65,513.28 1261.72,481.78 1360.89,400.78 1504.14,363.56 1631.23,395.64 1676.06,395.64 1814.63,408.49 "
     id="polygon12"
     style="fill:#c185b4;fill-opacity:1"
     transform="translate(-151.57001,-60.279999)" />
  <polygon
     class="cls-3"
     points="629.85,368.26 682.26,357.87 721.36,465.71 410.93,497.21 0,465.71 99.17,384.71 242.42,347.49 369.51,379.57 414.34,379.57 552.91,392.42 "
     id="polygon14"
     style="fill:#c185b4;fill-opacity:1"
     transform="translate(-151.57001,-60.279999)" />
  <polygon
     class="cls-4"
     points="142.33,193.59 79.84,456.47 147.72,464.79 99.16,464.79 99.16,695.74 1956.59,695.74 1956.59,464.79 346.58,464.79 350.18,463.78 280.89,398.21 236.06,328.78 236.06,293.43 173.57,272.38 "
     id="polygon16"
     style="fill:#d2d9e2"
     transform="translate(-151.57001,-60.279999)" />
  <path
     class="cls-3"
     d="m -52.410007,396.19 70.94,20.25 62.57,-10.12 36.669997,37.4 h 85.59 l 93.74,-23.77 42.79,23.77 h 71.32 l 55,-23.77 36.68,14.94 58.71,0.68 138.97,-27.15 89.66,11.55 79.77,23.75 h 86 L 1057.2,459.34 h 87.62 l 75.4,-15.62 34.64,-35.32 57.06,19.36 42.79,-31.59 40.72,22.44 95.77,40.75 73.37,-15.64 c 0,0 38.71,-1.36 44.83,0 6.12,1.36 53,-19 59.09,-16 6.09,3 52.19,-3.74 52.19,-3.74 l 71.75,51.68 114.49,161 c 0,0 -625.59,91.7 -701,93.74 C 1130.51,732.44 50.529993,604.04 36.269993,602 c -14.26,-2.04 -88.68,-205.81 -88.68,-205.81 z"
     id="path18"
     inkscape:connector-curvature="0"
     style="fill:#a885c1" />
  <path
     class="cls-2"
     d="m 400.63999,483.12 -15.62,-21.74 -4.75,-27.17 -15.63,27.17 -4.75,27.85 -12.91,18.34 -4.07,-15.62 -5.48,-10.23 -11.5,24.49 -20.38,-21.06 -19,12.23 -18.34,17 v 11.55 l -27.85,-14.94 -26.49,-12.91 c 0,0 -6.13,-16.36 -6.81,-18.36 -0.68,-2 -41.44,-8.15 -41.44,-8.15 l -8.83,15.62 -15.62,-42.11 -17,31.24 -17,17 -24.449997,-24.45 -13.59,-46.87 -17.66,45.51 -7.47,-47.54 3.22,20.46 -12.26,-57.91 -5.9,15 v 34.64 c 0,0 -6.8,16.3 -8.15,13.59 -1.35,-2.71 -14.2700003,-70.64 -14.2700003,-70.64 l -25.9999997,-59.1 -24.21,154.88 -8.84,118.19 597.049997,8.83 939.40001,6.79 308.39,4.76 -53,-118.87 -18.76,-47.55 -9.77,23.77 v -23.77 l -15,59.77 c 0,0 4.08,-48.9 0,-53 -4.08,-4.1 -5.43,-47.54 -5.43,-47.54 l -12.23,-35.32 -12.22,67.92 -13.59,-34 -12.22,29.88 -3.4,66.57 -7.38,13.65 -15.62,-36 -14.95,27.84 -53,-12.22 -38.72,12.22 -34.64,20.38 -28.53,-36.68 v -31.92 l -12.9,-40.08 v 40.76 l -11.55,-43.47 4.08,-36 -19,32.6 v 36.68 l -9.51,25.81 -8.15,38.72 -4.76,-17.66 -5.43,-37.36 -14.32,73.36 -6.12,-40.76 -7.47,25.81 -40.08,-15.62 -67.92,21.06 -43.41,-21.72 4.45,-23.43 -14.26,-19.7 -54.34,-6.11 -23.85,16.24 7.47,14.26 15.63,-8.15 -16,24.79 -14.27,19.7 -9.51,-14.26 -6.79,-10.19 -7.47,18.34 v 23.81 l -9.51,-31.92 -17,21 -45.51,-17 -17.66001,-27.17 -29.89,23.1 -4.07,-50.61 -22.21,13.3 -6.94,45.51 -6.79,-31.25 -10.19,31.25 -11.55,20.38 -24.45,-24.46 -22,20.38 -10.56,-14.94 -3.4,-16.31 -10.23,21.76 -6.1,13.59 c 0,0 2,-21.06 0,-24.46 -2,-3.4 -4.08,-29.2 -4.08,-29.2 l -7.47,19.69 v 23.78 l -5.45,13.58 -12.23,-29.21 -26.49,-2 -22.42,17.66 -5.42,-19.75 -8.15,19.7 -8.83,-29.21 -17,8.83 -26.46,4.77 -6.12,21.74 -11.55,-61.83 -8.15,26.49 3.39,22.41 -3.39,6.1 -15.63,-11.55 -9.81,-15.62 8.15,-15 1.74,-12.9 19.37,-16.93 -23.47,-2 -33.29,12.91 -8.45,33.28 -0.38,21.06 4.76,21 -18.34,-41.43 -13.59,-19.7 v -16.3 l -17.66,10.19 -10.18,23.09 -42.12,-20.38 -14.26,19 -40.08,18.34 -34.64,-2"
     id="path20"
     inkscape:connector-curvature="0"
     style="fill:#624b6b" />
  <g
     id="g1001"
     style="fill-opacity:1;fill:url(#linearGradient1013)">
    <path
       style="fill:url(#linearGradient1013);fill-opacity:1"
       inkscape:connector-curvature="0"
       id="path22"
       d="m 1362.03,313.85 -45,45 h 90 z m -32.14,38.58 12.86,-12.86 12.86,12.86 z m 19.29,-12.86 h 25.71 l -12.86,12.86 z m 32.14,0 12.86,12.86 h -25.75 z"
       class="cls-2" />
    <path
       style="fill:url(#linearGradient1013);fill-opacity:1"
       inkscape:connector-curvature="0"
       id="path24"
       d="M 1323.43,365.28 H 1317 v 6.44 h 6.43 v 51.43 h 77.15 v -51.43 h 6.42 v -6.43 h -83.57 z m 25.72,32.15 -12.86,-19.29 H 1362 Z"
       class="cls-2" />
  </g>
  <path
     class="cls-2"
     d="m 512.99999,340.5 -63,63 h 126 z m -45,54 18,-18 18,18 z m 27,-18 h 36 l -18,18 z m 45,0 18,18 h -36 z"
     id="path26"
     inkscape:connector-curvature="0"
     style="fill:#624b6b" />
  <path
     class="cls-2"
     d="m 458.99999,412.5 h -9 v 9 h 9 v 72 h 108 v -72 h 9 v -9 z m 36,45 -18,-27 h 36 z"
     id="path28"
     inkscape:connector-curvature="0"
     style="fill:#624b6b" />
  <text
     class="cls-5"
     id="text30"
     style="font-size:109.41000366px;font-family:ReemKufi-Regular, 'Reem Kufi';fill:#d2d9e2"
     x="596.38"
     y="243.45001">Dyvinaris</text>
  <path
     class="cls-2"
     d="M 971.99999,430.5 H 1098 l -63,-63 z m 72.00001,-9 18,-18 18,18 z m -9,0 -18,-18 h 36 z m -9,0 H 989.99999 L 1008,403.5 Z"
     id="path32"
     inkscape:connector-curvature="0"
     style="fill:#624b6b" />
  <path
     class="cls-2"
     d="m 980.99999,439.5 h -9 v 9 h 9 v 72 H 1089 v -72 h 9 v -9 z M 1035,457.5 h 36 l -18,27 z"
     id="path34"
     inkscape:connector-curvature="0"
     style="fill:#624b6b" />
  <path
     class="cls-4"
     d="m 647.31999,317.36 -36,36 h 72 z m -25.71,30.85 10.28,-10.28 10.29,10.28 z m 15.43,-10.28 h 20.57 l -10.29,10.28 z m 25.71,0 10.29,10.28 h -20.61 z"
     id="path36"
     inkscape:connector-curvature="0"
     style="fill:#d2d9e2" />
  <path
     class="cls-4"
     d="m 616.42999,358.5 h -5.15 v 5.14 h 5.15 v 41.15 h 61.71 v -41.15 h 5.14 v -5.14 z m 20.57,25.71 -10.29,-15.42 h 20.57 z"
     id="path38"
     inkscape:connector-curvature="0"
     style="fill:#d2d9e2" />
  <polygon
     class="cls-4"
     points="1743.78,232.04 1760.21,225.47 1779.92,228.75 1786.49,251.75 1786.49,281.33 1730.64,281.33 1737.62,263.87 1758.57,260.38 1762.06,253.4 1758.57,246.41 1741.11,246.41 "
     id="polygon40"
     style="fill:#d2d9e2"
     transform="translate(-151.57001,-60.279999)" />
  <path
     class="cls-4"
     d="m 1551.99,228.03 a 10.77,10.77 0 0 0 -10.77,10.77 v 13.67 l 20.39,31.41 -38.4,94.26 -7,27.93 h 118.69 v -178 z m 74.21,55.85 h -48.88 a 1.75,1.75 0 0 1 0,-3.49 h 48.88 a 1.75,1.75 0 0 1 0,3.49 z"
     id="path42"
     inkscape:connector-curvature="0"
     style="fill:#d2d9e2" />
  <polygon
     class="cls-6"
     points="1786.49,253.4 1786.49,281.33 1765.55,281.33 1776.02,274.34 "
     id="polygon44"
     style="fill:#e8ebef"
     transform="translate(-151.57001,-60.279999)" />
  <polygon
     class="cls-6"
     points="1779.51,410.5 1769.04,452.39 1734.13,466.35 1786.49,466.35 1786.49,344.17 "
     id="polygon46"
     style="fill:#e8ebef"
     transform="translate(-151.57001,-60.279999)" />
  <polygon
     class="cls-6"
     points="1776.02,337.18 1727.15,337.18 1692.79,312.75 1713.18,344.17 1727.15,340.67 1776.02,340.67 1786.49,344.17 1786.49,333.69 "
     id="polygon48"
     style="fill:#e8ebef"
     transform="translate(-151.57001,-60.279999)" />
  <polygon
     class="cls-6"
     points="1751.58,242.92 1758.57,242.92 1762.06,253.4 1758.57,246.41 1741.11,246.41 "
     id="polygon50"
     style="fill:#e8ebef"
     transform="translate(-151.57001,-60.279999)" />
  <polygon
     class="cls-4"
     points="561.08,310.21 550.22,305.86 537.19,308.04 532.85,323.24 532.85,342.79 569.77,342.79 565.16,331.25 551.31,328.94 549,324.33 551.31,319.71 562.85,319.71 "
     id="polygon52"
     style="fill:#d2d9e2"
     transform="translate(-151.57001,-60.279999)" />
  <path
     class="cls-4"
     d="m 381.27999,287.12 v 117.7 h 78.46 l -4.61,-18.46 -25.39,-62.31 13.48,-20.77 v -9 a 7.12,7.12 0 0 0 -7.12,-7.12 z m 4.61,35.78 a 1.16,1.16 0 0 1 1.16,-1.16 h 32.31 a 1.16,1.16 0 0 1 0,2.31 h -32.31 a 1.16,1.16 0 0 1 -1.16,-1.15 z"
     id="path54"
     inkscape:connector-curvature="0"
     style="fill:#d2d9e2" />
  <polygon
     class="cls-6"
     points="532.85,324.33 532.85,342.79 546.69,342.79 539.77,338.17 "
     id="polygon56"
     style="fill:#e8ebef"
     transform="translate(-151.57001,-60.279999)" />
  <polygon
     class="cls-6"
     points="537.46,428.18 544.39,455.87 567.46,465.1 532.85,465.1 532.85,384.33 "
     id="polygon58"
     style="fill:#e8ebef"
     transform="translate(-151.57001,-60.279999)" />
  <polygon
     class="cls-6"
     points="539.77,379.71 572.08,379.71 594.79,363.56 581.31,384.33 572.08,382.02 539.77,382.02 532.85,384.33 532.85,377.41 "
     id="polygon60"
     style="fill:#e8ebef"
     transform="translate(-151.57001,-60.279999)" />
  <polygon
     class="cls-6"
     points="555.92,317.4 551.31,317.4 549,324.33 551.31,319.71 562.85,319.71 "
     id="polygon62"
     style="fill:#e8ebef"
     transform="translate(-151.57001,-60.279999)" />
  <g
     id="g1005"
     style="fill-opacity:1;fill:url(#linearGradient1021)">
    <path
       style="fill:url(#linearGradient1021);fill-opacity:1"
       inkscape:connector-curvature="0"
       id="path64"
       d="m 157.67999,384.57 h 90 l -45,-45 z m 51.43,-6.43 12.86,-12.86 12.85,12.86 z m -6.43,0 -12.86,-12.86 h 25.72 z m -6.43,0 h -25.71 l 12.89,-12.86 z"
       class="cls-2" />
    <path
       style="fill:url(#linearGradient1021);fill-opacity:1"
       inkscape:connector-curvature="0"
       id="path66"
       d="m 164.10999,391 h -6.43 v 6.43 h 6.43 v 51.42 h 77.14 v -51.42 h 6.43 V 391 Z m 38.57,12.85 h 25.75 l -12.86,19.29 z"
       class="cls-2" />
  </g>
  <path
     id="rect880"
     class="cls-4"
     d="m 1156.97,168.45 c -4.06,0 -8.12,3.25 -8.12,9.74 h 16.24 c 0,-6.47 -4.06,-9.74 -8.12,-9.74 z m -11.36,11 v 6.49 h 22.72 v -6.49 z m 3.24,9.74 v 61.73 h 16.24 v -61.69 z m -3.24,64.93 v 6.5 h 22.72 v -6.5 z m 3.24,7.8 c 0,13 16.24,13 16.24,0 z"
     inkscape:connector-curvature="0"
     style="fill:#d2d9e2" />
  <ellipse
     id="path904"
     class="cls-7"
     cx="1157.52"
     cy="221.04999"
     rx="59.52"
     ry="59.740002"
     style="fill:none;stroke:#d2d9e2;stroke-width:8px;stroke-miterlimit:10" />
  <line
     class="cls-8"
     x1="611.32001"
     y1="264.04999"
     x2="1044"
     y2="264.04999"
     id="line70"
     style="fill:none;stroke:#d2d9e2;stroke-width:8px;stroke-linecap:round;stroke-miterlimit:10" />
</svg>
