<?xml version="1.0" encoding="UTF-8" standalone="no"?>
<!-- Created with Inkscape (http://www.inkscape.org/) -->

<svg
   xmlns:dc="http://purl.org/dc/elements/1.1/"
   xmlns:cc="http://creativecommons.org/ns#"
   xmlns:rdf="http://www.w3.org/1999/02/22-rdf-syntax-ns#"
   xmlns:svg="http://www.w3.org/2000/svg"
   xmlns="http://www.w3.org/2000/svg"
   xmlns:xlink="http://www.w3.org/1999/xlink"
   xmlns:sodipodi="http://sodipodi.sourceforge.net/DTD/sodipodi-0.dtd"
   xmlns:inkscape="http://www.inkscape.org/namespaces/inkscape"
   width="306.91699mm"
   height="193.14584mm"
   viewBox="0 0 306.91699 193.14585"
   version="1.1"
   id="svg8"
   inkscape:version="0.92.3 (2405546, 2018-03-11)"
   sodipodi:docname="Thorn.svg">
  <defs
     id="defs2">
    <linearGradient
       inkscape:collect="always"
       id="linearGradient1028">
      <stop
         style="stop-color:#e18c68;stop-opacity:1"
         offset="0"
         id="stop1024" />
      <stop
         style="stop-color:#fcbb6d;stop-opacity:0;"
         offset="1"
         id="stop1026" />
    </linearGradient>
    <linearGradient
       inkscape:collect="always"
       id="linearGradient834">
      <stop
         style="stop-color:#465c7a;stop-opacity:1;"
         offset="0"
         id="stop830" />
      <stop
         style="stop-color:#ce9963;stop-opacity:1"
         offset="1"
         id="stop832" />
    </linearGradient>
    <linearGradient
       inkscape:collect="always"
       xlink:href="#linearGradient834"
       id="linearGradient836"
       x1="145.52083"
       y1="98.5625"
       x2="145.52083"
       y2="310.22916"
       gradientUnits="userSpaceOnUse"
       gradientTransform="matrix(2.0000022,0,0,1,-153.98789,0)" />
    <linearGradient
       gradientTransform="translate(-4.9000124e-6,-2.4058593e-6)"
       inkscape:collect="always"
       xlink:href="#linearGradient834"
       id="linearGradient836-9"
       x1="145.52083"
       y1="98.5625"
       x2="145.52083"
       y2="310.22916"
       gradientUnits="userSpaceOnUse" />
    <linearGradient
       inkscape:collect="always"
       xlink:href="#linearGradient1028"
       id="linearGradient1030"
       x1="759.35419"
       y1="230.85417"
       x2="759.35419"
       y2="209.6875"
       gradientUnits="userSpaceOnUse"
       gradientTransform="translate(-190.49999,-44.979165)" />
    <linearGradient
       inkscape:collect="always"
       xlink:href="#linearGradient834"
       id="linearGradient836-5"
       x1="145.52083"
       y1="98.5625"
       x2="145.52083"
       y2="310.22916"
       gradientUnits="userSpaceOnUse"
       gradientTransform="matrix(2.0000022,0,0,1,79.374326,-309.56247)" />
  </defs>
  <sodipodi:namedview
     id="base"
     pagecolor="#ffffff"
     bordercolor="#666666"
     borderopacity="1.0"
     inkscape:pageopacity="0.0"
     inkscape:pageshadow="2"
     inkscape:zoom="0.37978531"
     inkscape:cx="591.31998"
     inkscape:cy="101.23665"
     inkscape:document-units="mm"
     inkscape:current-layer="layer1"
     showgrid="true"
     inkscape:window-width="1600"
     inkscape:window-height="837"
     inkscape:window-x="-8"
     inkscape:window-y="-8"
     inkscape:window-maximized="1"
     inkscape:snap-grids="false"
     objecttolerance="22"
     fit-margin-top="0"
     fit-margin-left="0"
     fit-margin-right="0"
     fit-margin-bottom="0">
    <inkscape:grid
       type="xygrid"
       id="grid826"
       spacingx="2.6458333"
       spacingy="2.6458333"
       originx="2.6458333"
       originy="4.803711e-006" />
  </sodipodi:namedview>
  <metadata
     id="metadata5">
    <rdf:RDF>
      <cc:Work
         rdf:about="">
        <dc:format>image/svg+xml</dc:format>
        <dc:type
           rdf:resource="http://purl.org/dc/dcmitype/StillImage" />
        <dc:title></dc:title>
      </cc:Work>
    </rdf:RDF>
  </metadata>
  <g
     inkscape:label="Calque 1"
     inkscape:groupmode="layer"
     id="layer1"
     transform="translate(2.6458333,-103.85416)">
    <rect
       style="opacity:1;fill:url(#linearGradient836);fill-opacity:1;stroke:none;stroke-width:4.24264288;stroke-linecap:round;stroke-linejoin:round;stroke-miterlimit:4;stroke-dasharray:none;stroke-opacity:1;paint-order:normal"
       id="rect828"
       width="613.83398"
       height="193.14584"
       x="-159.27879"
       y="103.85416"
       inkscape:export-xdpi="93"
       inkscape:export-ydpi="93" />
    <path
       style="fill:#a05e75;fill-opacity:1;stroke:none;stroke-width:0.25440317px;stroke-linecap:butt;stroke-linejoin:miter;stroke-opacity:1"
       d="m -19.56654,138.16502 -23.467685,18.70687 -9.183369,35.03197 -18.706329,4.08141 -5.101497,7.48222 -17.686261,4.42196 -13.264859,-6.80269 -8.84292,23.12831 -1.0201,-7.14272 -3.06133,6.46214 -10.20357,-6.12211 c 0,0 -7.14224,3.40124 -9.18295,3.74138 -1.96054,0.32674 -18.63298,3.96112 -19.9927,4.25761 v 25.62686 l 167.6031732,11.95018 -0.14315,-3.00498 58.3645888,-5.194 0.518827,-11.21896 -14.261579,-15.14532 -14.520999,-8.97517 -7.260498,-13.46223 7.519918,-12.06024 0.518307,-9.25525 -8.815952,-0.84181 -13.742752,-23.55928 -19.6751714,-18.02629 v 3.61941 z"
       id="path1024-2"
       inkscape:connector-curvature="0" />
    <path
       style="fill:#a05e75;fill-opacity:1;stroke:none;stroke-width:0.26458332px;stroke-linecap:butt;stroke-linejoin:miter;stroke-opacity:1"
       d="m 357.55291,127.68866 -11.0629,10.10067 -29.82195,-9.13897 -15.87294,9.13897 -0.21134,1.26763 -2.69442,2.28255 -14.86524,23.55928 -9.53585,0.84181 0.56118,9.25525 8.13337,12.06024 -7.85328,13.46223 -15.70601,8.97516 -15.42592,15.14533 0.56121,11.21895 40.71223,3.34967 -8.20674,55.86843 164.50159,-0.48111 13.7878,-13.78779 V 158.80562 l -4.64883,-5.14335 -22.60687,37.03701 -17.79686,-10.58178 -28.37915,-38.96093 z"
       id="path1024"
       inkscape:connector-curvature="0" />
    <path
       style="fill:#e18c68;fill-opacity:1;stroke:none;stroke-width:0.26458332px;stroke-linecap:butt;stroke-linejoin:miter;stroke-opacity:1"
       d="m 371.90809,214.69162 -25.50904,6.80216 -24.48843,10.20352 -19.05982,-4.01268 c -1.75865,-1.2924 -3.18476,-2.23344 -3.91501,-2.47685 -3.5697,-1.18993 -35.69806,2.77606 -35.69806,2.77606 l -19.8324,-7.93285 -23.79853,1.98334 -10.70943,12.29589 -12.29588,4.36304 -13.88237,-0.39636 -11.10577,10.31255 -32.9215,1.19011 4.36303,20.6251 160.6858,-0.68213 v -1.88619 l 22.27514,29.14344 h 41.91992 l 86.61744,-25.90229 v -56.18624 l -32.98817,4.54184 z"
       id="path875"
       inkscape:connector-curvature="0" />
    <path
       style="opacity:1;fill:#e18c68;fill-opacity:1;stroke:none;stroke-width:0.79217863;stroke-linecap:round;stroke-linejoin:round;stroke-miterlimit:4;stroke-dasharray:none;stroke-opacity:1;paint-order:normal"
       d="m 270.32211,210.53378 c -3.31796,0 -6.6354,2.36407 -6.9601,7.09122 h 13.9205 c -0.3247,-4.72715 -3.64244,-7.09122 -6.9604,-7.09122 z m 2.44525,3.80787 c 0.524,0 1.04815,0.41919 1.04815,1.25758 h -2.09599 c 0,-0.83839 0.52386,-1.25758 1.04784,-1.25758 z m -4.07192,4.01282 c -1.76173,-0.003 -3.54788,0.006 -5.35983,0.0393 -1.39732,0 -1.40602,1.37882 -0.009,1.37882 10e-4,0 0.008,0 0.009,0 v 12.59418 h 13.9733 v -12.57558 c 1.39731,0 1.39731,-1.39742 0,-1.39742 -2.80852,1e-5 -5.67725,-0.0349 -8.61347,-0.0393 z m -0.46931,2.13529 c 0.69866,0 1.39742,0.52407 1.39742,1.57206 v 2.79453 h -2.79454 v -2.79453 c 0,-1.04799 0.69846,-1.57206 1.39712,-1.57206 z"
       id="rect892-0"
       inkscape:connector-curvature="0" />
    <g
       id="g1110"
       transform="matrix(0.62857135,0,0,0.62857135,44.827355,79.244666)">
      <rect
         y="164.70833"
         x="542.39581"
         height="18.520834"
         width="55.5625"
         id="rect1022"
         style="opacity:1;fill:url(#linearGradient1030);fill-opacity:1;stroke:none;stroke-width:3;stroke-linecap:round;stroke-linejoin:round;stroke-miterlimit:4;stroke-dasharray:none;stroke-opacity:1;paint-order:normal" />
      <rect
         y="183.22916"
         x="542.39581"
         height="15.875"
         width="55.5625"
         id="rect1020"
         style="opacity:1;fill:#fcbb6d;fill-opacity:1;stroke:none;stroke-width:2.77746034;stroke-linecap:round;stroke-linejoin:round;stroke-miterlimit:4;stroke-dasharray:none;stroke-opacity:1;paint-order:normal" />
      <g
         transform="translate(-190.49999,-44.979165)"
         style="fill:#e18c68;fill-opacity:1"
         id="g1101">
        <path
           style="fill:#e18c68;fill-opacity:1;stroke:none;stroke-width:0.99999994px;stroke-linecap:butt;stroke-linejoin:miter;stroke-opacity:1"
           d="m 2750,218.10938 v 100 200 h 250 v -200 -100 l -20,100 -10,-60 -10,60 h -170 l -10,-50 -10,50 z m 45,130 c 8.31,0 15,6.68995 15,15 v 110 c 0,8.30999 -6.69,14.99999 -15,15 -8.31,0 -15,-6.69001 -15,-15 v -110 c 0,-8.31005 6.69,-15 15,-15 z m 50,0 c 8.31,0 15,6.68995 15,15 v 110 c 0,8.30997 -6.69,14.99999 -15,15 -8.31,0 -15,-6.69003 -15,-15 v -110 c 0,-8.31005 6.69,-15 15,-15 z m 60,0 c 8.31,0 15,6.68995 15,15 v 110 c 0,8.30995 -6.69,14.99999 -15,15 -8.31,0 -15,-6.69005 -15,-15 v -110 c 0,-8.31005 6.69,-15 15,-15 z m 50,0 c 8.31,0 15,6.68995 15,15 v 110 c 0,8.30993 -6.69,14.99999 -15,15 -8.31,0 -15,-6.69007 -15,-15 v -110 c 0,-8.31005 6.69,-15 15,-15 z m -215,180 -90,90 h 450 l -90,-90 z"
           transform="matrix(0.26458333,0,0,0.26458333,0,107)"
           id="path950"
           inkscape:connector-curvature="0" />
        <path
           style="fill:#e18c68;fill-opacity:1;stroke:none;stroke-width:0.99999994px;stroke-linecap:butt;stroke-linejoin:miter;stroke-opacity:1"
           d="m 2875,203.10938 c -37.5,0 -75,35.00001 -75,105 h 150 c 0,-69.99999 -37.5,-105.00001 -75,-105 z m -55,65 h 20 l -10,10 z m 40,0 h 30 l -15,10 z m 50,0 h 20 l -10,10 z"
           transform="matrix(0.26458333,0,0,0.26458333,0,107)"
           id="path952"
           inkscape:connector-curvature="0" />
        <ellipse
           style="opacity:1;fill:#e18c68;fill-opacity:1;stroke:none;stroke-width:3;stroke-linecap:round;stroke-linejoin:round;stroke-miterlimit:4;stroke-dasharray:none;stroke-opacity:1;paint-order:normal"
           id="path1040"
           cx="760.67706"
           cy="159.41667"
           rx="6.614583"
           ry="5.2916665" />
        <ellipse
           style="opacity:1;fill:#e18c68;fill-opacity:1;stroke:none;stroke-width:3;stroke-linecap:round;stroke-linejoin:round;stroke-miterlimit:4;stroke-dasharray:none;stroke-opacity:1;paint-order:normal"
           id="path1044"
           cx="760.67706"
           cy="153.59581"
           rx="3.96875"
           ry="2.6458333" />
      </g>
    </g>
    <path
       style="fill:#fcbb6d;fill-opacity:1;stroke:none;stroke-width:0.26458332px;stroke-linecap:butt;stroke-linejoin:miter;stroke-opacity:1"
       d="m -3.1753974,234.01447 v 0.91467 l -0.0656,-0.51056 c -30.2702546,-0.68024 -39.4531536,3.74095 -68.0229306,1.36012 -22.6614,-1.88845 -69.433282,-0.15584 -88.015642,0.64854 v 51.70847 L 2.8810762,282.03479 1.3995261,270.51146 c 65.3089529,-0.80877 227.4757439,-3.27564 243.6207439,-8.00984 20.25698,-5.93998 -14.72401,-15.30594 -26.60303,-18.25522 -14.37833,-3.5698 -19.83256,-4.75953 -36.09496,-6.74274 -16.26238,-1.98322 -56.32336,1.18983 -69.01595,1.58647 -12.69256,0.39664 -47.993632,-3.96633 -69.015612,-1.58647 -14.655889,1.65917 -31.239363,-3.04243 -47.4660887,-3.48919 z"
       id="path871"
       inkscape:connector-curvature="0" />
    <g
       id="g861"
       transform="translate(-0.52941393)">
      <path
         inkscape:connector-curvature="0"
         id="rect976"
         d="m 86.315301,149.47148 -7.275912,4.2946 4.679149,0.25656 -3.020671,1.59444 7.018963,0.38504 1.33792,7.70026 12.16267,13.57425 0.55286,0.61729 3.44544,1.36218 0.36034,4.12678 3.86977,4.31886 10.48955,-9.39856 -3.86978,-4.31887 -3.44549,-1.36261 -1.59444,-3.02068 -12.71552,-14.19154 -3.87021,-4.31881 z m -18.74195,3.77131 -19.805772,18.29934 3.659792,3.96126 19.805777,-18.29936 z m 37.010429,5.44436 -1.23414,1.10567 5.52874,6.17025 1.23414,-1.10568 z m -38.377547,4.99699 -7.922015,7.31997 13.056521,14.13186 -14.074734,12.61129 8.29284,9.25497 14.216352,-12.73744 15.10734,16.35134 13.111143,6.24306 -5.18869,-13.56308 -14.995575,-16.23021 11.685524,-10.47017 -8.292892,-9.2554 -11.827048,10.59717 z m -13.592025,31.14404 c -2.216963,0.29179 -5.630228,3.85826 -4.282654,5.36224 l 13.82121,15.42569 c 1.658545,1.85105 7.211923,-3.12488 5.553385,-4.97592 L 53.884997,195.21493 c -0.310979,-0.34708 -0.759184,-0.45408 -1.270789,-0.38675 z"
         style="opacity:1;fill:#fcbb6d;fill-opacity:1;stroke:none;stroke-width:0.93936151;stroke-linecap:round;stroke-linejoin:round;stroke-miterlimit:4;stroke-dasharray:none;stroke-opacity:1;paint-order:normal" />
      <text
         id="text836"
         y="195.72037"
         x="133.72751"
         style="font-style:normal;font-variant:normal;font-weight:normal;font-stretch:normal;font-size:3.52777767px;line-height:1.25;font-family:borsok;-inkscape-font-specification:borsok;letter-spacing:0px;word-spacing:0px;fill:#fcbb6d;fill-opacity:1;stroke:none;stroke-width:0.26458332"
         xml:space="preserve"><tspan
           style="font-style:normal;font-variant:normal;font-weight:normal;font-stretch:normal;font-size:42.33333206px;font-family:'Reem Kufi';-inkscape-font-specification:'Reem Kufi';letter-spacing:-1.34672916px;fill:#fcbb6d;fill-opacity:1;stroke-width:0.26458332"
           y="195.72037"
           x="133.72751"
           id="tspan834"
           sodipodi:role="line">Thorn</tspan></text>
      <path
         inkscape:connector-curvature="0"
         id="path838"
         d="M 132.29166,204.39583 H 240.77083"
         style="fill:none;stroke:#fcbb6d;stroke-width:5;stroke-linecap:round;stroke-linejoin:miter;stroke-miterlimit:3.79999995;stroke-dasharray:none;stroke-opacity:1" />
    </g>
    <path
       style="fill:#a05e75;fill-opacity:1;stroke:none;stroke-width:0.26458332px;stroke-linecap:butt;stroke-linejoin:miter;stroke-opacity:1"
       d="m 196.46711,199.0843 -1.18959,50.37367 -6.34638,-11.89953 -3.17343,15.07246 -32.52465,-9.12244 -35.30119,9.91567 -31.334962,-1.58646 c 0,0 -23.004791,-5.55315 -24.987999,-5.55315 -1.983208,0 -32.128087,5.55315 -32.128087,5.55315 l -32.6562194,-6.99596 v 0.4129 l -33.0566966,-5.73454 -13.264235,10.20352 -14.965458,-2.04071 -20.407021,-8.50284 -27.209262,7.82278 -11.22418,12.24422 -11.90373,-6.46214 -19.04702,-1.70067 -5.02711,-0.18397 v 46.09951 H 2.3570495 303.74068 v -9.62525 l 0.82423,3.50314 149.98827,-12.71602 v -41.91682 l -11.56055,-3.52691 -18.02627,7.48274 -7.82278,-8.16332 -10.88358,9.86348 -14.62495,8.16281 -6.46213,-9.1829 -2.04071,11.2236 -10.54354,-23.12779 -4.7625,21.76767 -2.72026,-6.46214 -4.42193,4.76146 -2.38074,-9.18341 -8.84288,4.0814 -18.02627,-2.72076 -27.69341,5.79034 v -0.51366 l -6.52621,-0.60927 -7.93285,-13.08912 -38.0778,2.3797 -11.10578,-10.31255 -10.31253,7.93285 -2.38022,15.8657 -12.2959,3.5698 -9.51931,-32.12827 -0.39688,9.91619 z"
       id="path867"
       inkscape:connector-curvature="0" />
    <path
       style="opacity:1;fill:#a05e75;fill-opacity:1;stroke:none;stroke-width:1.14328253;stroke-linecap:round;stroke-linejoin:round;stroke-miterlimit:4;stroke-dasharray:none;stroke-opacity:1;paint-order:normal"
       d="m 76.040528,221.74208 c 5.0135,0 10.026203,3.25872 10.51683,9.77484 h -21.03412 c 0.490617,-6.51612 5.503787,-9.77484 10.51729,-9.77484 z m -3.694829,5.24893 c -0.791767,0 -1.583771,0.57782 -1.583771,1.7335 H 73.929 c 0,-1.15568 -0.791547,-1.7335 -1.583301,-1.7335 z m 6.152754,5.53144 c 2.662005,-0.005 5.36091,0.008 8.098795,0.0543 2.111378,0 2.124528,1.90061 0.0131,1.90061 -0.002,0 -0.0114,0 -0.0131,0 v 17.36036 h -21.11391 v -17.33483 c -2.111358,0 -2.111358,-1.92625 0,-1.92625 4.243716,0 8.578432,-0.0482 13.015115,-0.0543 z m 0.709137,2.94337 c -1.055684,0 -2.111528,0.7224 -2.111528,2.16698 v 3.85211 h 4.222596 v -3.85211 c 0,-1.44458 -1.055384,-2.16698 -2.111068,-2.16698 z"
       id="rect892-2"
       inkscape:connector-curvature="0" />
    <path
       style="fill:#3a4b63;fill-opacity:1;stroke:none;stroke-width:0.26458332px;stroke-linecap:butt;stroke-linejoin:miter;stroke-opacity:1"
       d="m -159.2796,103.85394 v 47.09118 l 1.62524,2.1854 6.46269,23.46833 -1.36065,-23.80836 4.42147,21.08708 0.34003,6.80217 1.02062,15.64504 3.74139,-12.24422 3.40137,-15.305 8.20781,-14.95516 9.13799,-24.83828 3.29595,-9.93324 6.09733,37.72793 4.49588,-35.65829 0.51883,16.8708 8.039867,-23.29212 7.142196,9.86349 18.366321,-1.70068 4.081404,4.42144 1.700671,-17.34623 12.924788,21.0876 -1.360637,-11.22412 3.741362,15.30553 3.741349,16.32562 0.340027,-22.1077 4.081389,29.2499 4.421403,21.42763 0.680057,-29.59044 c 0,0 4.081386,-19.38659 4.081386,-20.74706 0,-1.36047 4.081379,-5.10149 4.081379,-5.10149 l 16.325527,-5.44205 7.1426767,-11.90418 5.1670869,42.55244 v 4.94543 l 2.64582347,7.42901 3.37135013,-23.40219 2.9749902,0.39687 c 0,0 1.7848901,-3.5701 1.7848901,-4.95835 0,-1.38825 3.5697875,-10.90735 3.5697875,-10.90735 l 4.957813,13.48549 1.784891,-3.17294 0.594794,-13.68443 0.19844,5.35471 c 0,0 2.181768,-1.58653 2.181758,-2.57814 0,-0.99161 0.594797,-7.33753 0.594797,-7.33753 l 3.966656,-9.71776 5.75104,14.47715 14.873943,-5.35471 c 0,0 2.380168,-6.34608 4.958333,-4.95783 2.578155,1.38825 14.279149,6.14794 14.279149,6.14794 l 13.683842,-3.17293 1.190104,5.75107 6.941131,1.38803 v -1.98283 l 2.379685,-2.38021 v -3.76773 l 10.046363,6.44457 3.943937,6.71328 6.6213,3.73931 3.34555,7.53029 0.79322,6.54482 2.77656,-2.38022 0.40257,-9.91619 4.15893,-5.07979 3.58375,-8.76588 9.54516,-7.21041 1.98335,5.15679 7.93284,5.3542 12.09744,-7.1391 9.12296,7.33753 13.28756,-5.9495 4.75994,-4.95784 c 0,0 0.79322,4.16455 0.79322,4.95784 0,0.79328 2.77656,-3.76825 2.77656,-3.76825 l 3.56981,6.74326 6.94119,-4.16512 3.96615,-3.37137 c 0,0 3.17307,7.338 3.37138,8.13129 0.19833,0.79329 7.73493,2.97501 7.73493,2.97501 l 3.96616,-1.38855 0.79325,-4.1646 3.76825,-6.14795 26.57512,17.84904 1.19009,-7.93285 6.14794,2.18127 15.86571,-6.54431 c 0,0 15.66275,0.52378 15.86106,1.91203 0.19833,1.38825 7.64127,3.68005 7.44294,4.86999 -0.19833,1.18993 -3.96616,6.7432 -3.96616,7.53649 0,0.79329 3.56981,9.51931 3.56981,9.51931 0,0 9.12294,-2.95697 9.12294,10.51099 0,0 4.3628,1.58694 4.75941,2.38022 0.21746,0.43487 2.80492,0.44866 5.11079,0.37568 l 0.75293,0.81081 -0.67747,-0.81236 c 0.005,-1.6e-4 0.0103,-2.4e-4 0.0156,-5.3e-4 l -0.44132,-2.19211 c 0.37253,-4.99083 2.04171,-19.97912 8.31837,-10.46293 7.45548,11.30346 7.93647,0.96222 7.93647,0.96222 l 1.92389,-23.8094 2.16474,7.93646 7.69564,-17.31625 v 20.44269 l 4.56975,-11.78429 11.54401,4.32893 1.92389,-2.64583 0.96171,-7.21455 1.68362,5.77174 3.36725,-4.32893 4.0881,2.40502 6.01255,0.9617 1.68363,-4.56923 7.45535,7.45536 0.72141,5.29115 2.64583,-10.8226 -0.48109,19.24017 6.01255,-19.48046 1.6836,2.64531 7.69567,-6.73395 18.51877,2.88613 6.49314,4.08812 12.98731,8.41757 7.93647,-12.0251 1.92391,11.0634 4.16772,2.04122 V 103.85394 H 299.57711 2.1813495 Z"
       id="path846"
       inkscape:connector-curvature="0" />
    <path
       style="fill:none;stroke:none;stroke-width:0.26458332px;stroke-linecap:butt;stroke-linejoin:miter;stroke-opacity:1"
       d="m -3.541064,234.89205 -14.438295,6.41705 c 0,0 -0.916714,4.58362 -1.833428,4.58362 -0.916724,0 -11.917334,-6.18788 -11.917334,-6.18788 l -7.562915,1.37508 -6.875381,-11.00067 -26.355711,23.37643 -4.354433,-4.58361 -2.062626,1.37508 -0.229179,-7.56296 -4.125251,8.47968 -1.145905,-4.58361 -5.500333,20.62626 -3.896072,-0.45837 -1.145902,4.58362 -28.876891,-14.66756 -5.50037,7.33378 -1.14591,-2.29181 -12.37582,8.47968 c 0,0 -10.08401,19.022 -10.08401,17.64691 0,-1.37508 0,-22.00134 0,-22.00134 l -10.54238,-11.22985 -5.50037,65.77484 177.8441899,-7.33378 z"
       id="path872"
       inkscape:connector-curvature="0" />
    <path
       style="fill:#685d79;fill-opacity:1;stroke:none;stroke-width:0.26458332px;stroke-linecap:butt;stroke-linejoin:miter;stroke-opacity:1"
       d="m 430.74843,241.22075 -5.44206,10.54354 -23.4678,6.46214 -18.36631,8.16281 -21.76767,-1.36013 -14.96499,5.44153 -16.32614,-11.90367 -26.67278,-9.87898 v -1.25264 c -6.34778,2.22069 -14.5887,5.54275 -19.05619,9.11676 -7.93287,6.34629 -13.4855,14.67559 -13.4855,14.67559 l -22.21209,2.77658 -0.39687,-10.31256 h -28.95481 l -13.88237,-1.1901 c 0,0 -37.28466,16.26257 -39.26787,16.26257 -1.98321,0 -19.43542,-11.10618 -21.02197,-12.69277 -1.5866,-1.58655 -23.79855,-2.77657 -23.79855,-2.77657 l -23.402178,9.12296 -38.870801,-0.79324 -5.553107,-7.93285 -26.971327,3.56981 -30.0424444,-22.90712 v 7.81037 l -24.1379176,-1.83658 -19.770769,14.90917 -35.976048,-7.13083 -37.273288,7.45484 -18.79844,-0.32401 -20.14774,-5.93866 v 37.70106 H -0.20298391 289.28419 454.5537 v -47.99242 l -5.77897,-4.04523 -6.46216,2.0407 z"
       id="path876"
       inkscape:connector-curvature="0" />
    <path
       style="opacity:1;fill:#685d79;fill-opacity:1;stroke:none;stroke-width:1.55491936;stroke-linecap:round;stroke-linejoin:round;stroke-miterlimit:4;stroke-dasharray:none;stroke-opacity:1;paint-order:normal"
       d="m 140.42504,230.88254 c -6.51263,0 -13.02422,4.64028 -13.66155,13.91893 h 27.32368 c -0.63732,-9.27865 -7.14951,-13.91893 -13.66213,-13.91893 z m 4.79964,7.47424 c 1.02852,0 2.05734,0.8228 2.05734,2.46843 h -4.11408 c 0,-1.64563 1.02824,-2.46843 2.05674,-2.46843 z m -7.99254,7.87652 c -3.45799,-0.006 -6.96391,0.0114 -10.52047,0.0772 -2.74272,0 -2.75979,2.70639 -0.0171,2.70639 0.002,0 0.0149,0 0.0171,0 v 24.72036 H 154.139 v -24.68384 c 2.7427,0 2.7427,-2.74291 0,-2.74291 -5.51266,1e-5 -11.14352,-0.0686 -16.90686,-0.0772 z m -0.92118,4.19122 c 1.37136,0 2.74292,1.02868 2.74292,3.0857 v 5.48523 h -5.48523 v -5.48523 c 0,-2.05702 1.37097,-3.0857 2.74231,-3.0857 z"
       id="rect892"
       inkscape:connector-curvature="0" />
    <path
       style="opacity:1;fill:#685d79;fill-opacity:1;stroke:none;stroke-width:1.55491936;stroke-linecap:round;stroke-linejoin:round;stroke-miterlimit:4;stroke-dasharray:none;stroke-opacity:1;paint-order:normal"
       d="m -21.943145,219.03806 c -6.512594,0 -13.024145,4.64028 -13.661472,13.91893 H -8.2811043 C -8.918421,223.67834 -15.430571,219.03806 -21.943145,219.03806 Z m 4.799603,7.47424 c 1.028514,0 2.057328,0.8228 2.057328,2.46843 h -4.114046 c 0,-1.64563 1.028234,-2.46843 2.056718,-2.46843 z m -7.992485,7.87652 c -3.457969,-0.006 -6.963871,0.0114 -10.52041,0.0772 -2.742705,0 -2.759775,2.70639 -0.0171,2.70639 0.002,0 0.0149,0 0.0171,0 v 24.72036 h 27.4271627 v -24.68384 c 2.7426835,0 2.7426835,-2.74291 0,-2.74291 -5.5126287,1e-5 -11.1434457,-0.0686 -16.9067527,-0.0772 z m -0.921174,4.19122 c 1.371351,0 2.742905,1.02868 2.742905,3.0857 v 5.48523 h -5.4852 v -5.48523 c 0,-2.05702 1.370961,-3.0857 2.742295,-3.0857 z"
       id="rect892-6"
       inkscape:connector-curvature="0" />
    <path
       style="opacity:1;fill:#685d79;fill-opacity:1;stroke:none;stroke-width:1.55491936;stroke-linecap:round;stroke-linejoin:round;stroke-miterlimit:4;stroke-dasharray:none;stroke-opacity:1;paint-order:normal"
       d="m 430.41222,214.95665 c -6.51263,0 -13.02422,4.64028 -13.66155,13.91893 h 27.32367 c -0.63732,-9.27865 -7.14951,-13.91893 -13.66212,-13.91893 z m 4.79963,7.47424 c 1.02852,0 2.05734,0.8228 2.05734,2.46843 h -4.11407 c 0,-1.64563 1.02824,-2.46843 2.05673,-2.46843 z m -7.99253,7.87652 c -3.45799,-0.006 -6.96391,0.0114 -10.52047,0.0772 -2.74272,0 -2.75979,2.70639 -0.0171,2.70639 0.002,0 0.0149,0 0.0171,0 v 24.72036 h 27.42732 v -24.68384 c 2.7427,0 2.7427,-2.74291 0,-2.74291 -5.51266,1e-5 -11.14351,-0.0686 -16.90685,-0.0772 z m -0.92118,4.19122 c 1.37136,0 2.74292,1.02868 2.74292,3.0857 v 5.48523 h -5.48523 v -5.48523 c 0,-2.05702 1.37097,-3.0857 2.74231,-3.0857 z"
       id="rect892-6-8"
       inkscape:connector-curvature="0" />
    <path
       style="fill:#3a4b63;fill-opacity:1;stroke:none;stroke-width:0.26458332px;stroke-linecap:butt;stroke-linejoin:miter;stroke-opacity:1"
       d="m 304.45897,240.3314 -3.14037,23.43371 -2.97862,-0.36691 c 0,0 -1.74951,3.58723 -1.73583,4.97541 0.0138,1.38819 -3.46231,10.94197 -3.46231,10.94197 l -5.09064,-13.43639 -1.75339,3.1905 -0.46043,13.68961 -0.25114,-5.35265 c 0,0 -2.16572,1.60828 -2.15596,2.59984 0.0101,0.99155 -0.52244,7.34322 -0.52244,7.34322 l -3.82818,9.65006 h 175.47352 v -10.29085 l -2.45412,0.93535 -15.15152,-4.32894 -2.16475,-3.36723 -1.44279,5.53144 -2.40501,-2.16421 c 0,0 -19.48061,-0.96221 -21.1641,-0.96221 -1.68349,0 -1.6836,4.81004 -1.6836,4.81004 l -1.92392,-6.25285 -0.48059,5.05034 -2.64583,-14.43013 -1.44283,12.98732 -1.68359,-1.92442 -2.40504,3.60753 -12.0251,0.4811 -0.72141,-5.29115 -14.9107,-3.36672 -4.08866,-0.7214 -10.58177,7.69566 -0.96221,-0.72141 -0.96171,-3.84782 -7.93697,1.92391 -6.73397,-5.77174 -6.01204,12.02459 -1.20251,-11.544 -1.68362,-1.92392 -1.92389,13.94902 -1.44333,-5.05033 -1.68309,-4.56975 -0.96224,5.29115 -5.77173,-14.91123 v 7.93646 l -1.2025,-1.92391 -2.40504,1.68362 -3.30779,-13.0235 v -0.032 l -1.22733,-9.73015 z m -303.3690139,4.11344 -6.960254,6.69778 v 10.04745 l -14.2610661,5.83427 c 0,0 1.034644,12.73761 -0.910017,13.06173 -1.944648,0.3241 -16.529647,4.2137 -16.529647,4.2137 l -12.315968,-1.62057 -2.268588,-26.57719 -0.972544,21.39146 -1.944568,-4.86172 -5.18573,10.37146 -14.585156,-7.77886 1.296562,-5.83375 -6.806303,-3.56515 h -9.399426 l -3.565157,5.18573 -10.371474,4.5377 v 6.80631 l -9.07495,2.91661 -8.75146,-2.5926 -1.29605,-8.42688 -4.21372,13.2886 v -5.18573 l -7.13035,9.07489 -8.42693,-8.75088 -0.32401,-7.13032 -16.37326,-2.08411 v 23.535 h 438.27399 l -5.85031,-14.31385 -14.82079,5.50095 c 0,0 -2.31704,6.36972 -4.90874,5.00693 -2.59175,-1.36278 -14.3392,-6.00687 -14.33917,-6.00687 l -13.65242,3.30781 -1.24642,-5.7397 -6.95463,-1.31982 0.0196,1.98334 -2.35646,2.40296 0.0372,3.76824 -7.33287,-8.42791 -4.80333,-5.4839 -6.35981,-3.1781 -5.70043,-7.10034 -0.85783,-6.53655 -2.7528,2.40709 -1.79216,6.4487 -2.62154,3.63337 -3.49745,-2.90008 -6.59805,2.64325 -5.30614,-3.25252 -16.31476,4.24315 -3.30057,17.17467 -4.83124,-8.43773 -13.62501,1.32085 -8.67698,10.95437 c 0,0 -0.83453,-4.15683 -0.84233,-4.95009 -0.008,-0.79324 -2.73936,3.79512 -2.73936,3.79512 l -3.63596,-6.7076 -6.89984,4.23333 -3.93309,3.41013 c 0,0 -3.245334,-7.3064 -3.451464,-8.0977 -0.206127,-0.7913 -7.763305,-2.89853 -7.763305,-2.89853 l -3.952709,1.4273 -0.751884,4.17236 -3.707759,6.18515 -26.74913,-17.58652 -1.112061,7.94422 -6.169097,-2.12081 -16.599934,0.77257 c 0,0 -10.8007,-4.79634 -11.0127,-6.18257 -0.211977,-1.38622 0.20928,-6.38445 0.39584,-7.57628 0.186597,-1.19183 -9.453579,-3.39513 -9.461379,-4.18838 -0.008,-0.79325 4.189899,-9.20357 4.189899,-9.20357 L 7.1288398,247.10566 c 0,0 -4.3787136,-1.54333 -4.7831303,-2.33268 -0.0889,-0.17359 -0.5735567,-0.27359 -1.2557334,-0.32814 z"
       id="path846-8"
       inkscape:connector-curvature="0" />
  </g>
</svg>
