<?xml version="1.0" encoding="UTF-8" standalone="no"?>
<!-- Created with Inkscape (http://www.inkscape.org/) -->

<svg
   xmlns:dc="http://purl.org/dc/elements/1.1/"
   xmlns:cc="http://creativecommons.org/ns#"
   xmlns:rdf="http://www.w3.org/1999/02/22-rdf-syntax-ns#"
   xmlns:svg="http://www.w3.org/2000/svg"
   xmlns="http://www.w3.org/2000/svg"
   xmlns:xlink="http://www.w3.org/1999/xlink"
   xmlns:sodipodi="http://sodipodi.sourceforge.net/DTD/sodipodi-0.dtd"
   xmlns:inkscape="http://www.inkscape.org/namespaces/inkscape"
   width="613.83398mm"
   height="193.14584mm"
   viewBox="0 0 613.83398 193.14585"
   version="1.1"
   id="svg8"
   inkscape:version="0.92.3 (2405546, 2018-03-11)"
   sodipodi:docname="Thorn.svg">
  <defs
     id="defs2">
    <linearGradient
       inkscape:collect="always"
       id="linearGradient1028">
      <stop
         style="stop-color:#e18c68;stop-opacity:1"
         offset="0"
         id="stop1024" />
      <stop
         style="stop-color:#fcbb6d;stop-opacity:0;"
         offset="1"
         id="stop1026" />
    </linearGradient>
    <linearGradient
       inkscape:collect="always"
       id="linearGradient834">
      <stop
         style="stop-color:#465c7a;stop-opacity:1;"
         offset="0"
         id="stop830" />
      <stop
         style="stop-color:#ce9963;stop-opacity:1"
         offset="1"
         id="stop832" />
    </linearGradient>
    <linearGradient
       inkscape:collect="always"
       xlink:href="#linearGradient834"
       id="linearGradient836"
       x1="145.52083"
       y1="98.5625"
       x2="145.52083"
       y2="310.22916"
       gradientUnits="userSpaceOnUse"
       gradientTransform="matrix(2.0000022,0,0,1,2.6458392,0)" />
    <linearGradient
       gradientTransform="translate(-4.9000124e-6,-2.4058593e-6)"
       inkscape:collect="always"
       xlink:href="#linearGradient834"
       id="linearGradient836-9"
       x1="145.52083"
       y1="98.5625"
       x2="145.52083"
       y2="310.22916"
       gradientUnits="userSpaceOnUse" />
    <linearGradient
       inkscape:collect="always"
       xlink:href="#linearGradient1028"
       id="linearGradient1030"
       x1="759.35419"
       y1="230.85417"
       x2="759.35419"
       y2="209.6875"
       gradientUnits="userSpaceOnUse"
       gradientTransform="translate(-190.49999,-44.979165)" />
    <linearGradient
       inkscape:collect="always"
       xlink:href="#linearGradient834"
       id="linearGradient836-5"
       x1="145.52083"
       y1="98.5625"
       x2="145.52083"
       y2="310.22916"
       gradientUnits="userSpaceOnUse"
       gradientTransform="matrix(2.0000022,0,0,1,79.374326,-309.56247)" />
  </defs>
  <sodipodi:namedview
     id="base"
     pagecolor="#ffffff"
     bordercolor="#666666"
     borderopacity="1.0"
     inkscape:pageopacity="0.0"
     inkscape:pageshadow="2"
     inkscape:zoom="0.38895889"
     inkscape:cx="1266.9785"
     inkscape:cy="556.5019"
     inkscape:document-units="mm"
     inkscape:current-layer="layer1"
     showgrid="true"
     inkscape:window-width="1600"
     inkscape:window-height="837"
     inkscape:window-x="-8"
     inkscape:window-y="-8"
     inkscape:window-maximized="1"
     inkscape:snap-grids="false"
     objecttolerance="22"
     fit-margin-top="0"
     fit-margin-left="0"
     fit-margin-right="0"
     fit-margin-bottom="0">
    <inkscape:grid
       type="xygrid"
       id="grid826"
       spacingx="2.6458333"
       spacingy="2.6458333"
       originx="2.6458333"
       originy="4.803711e-006" />
  </sodipodi:namedview>
  <metadata
     id="metadata5">
    <rdf:RDF>
      <cc:Work
         rdf:about="">
        <dc:format>image/svg+xml</dc:format>
        <dc:type
           rdf:resource="http://purl.org/dc/dcmitype/StillImage" />
        <dc:title></dc:title>
      </cc:Work>
    </rdf:RDF>
  </metadata>
  <g
     inkscape:label="Calque 1"
     inkscape:groupmode="layer"
     id="layer1"
     transform="translate(2.6458333,-103.85416)">
    <rect
       style="opacity:1;fill:url(#linearGradient836);fill-opacity:1;stroke:none;stroke-width:4.24264288;stroke-linecap:round;stroke-linejoin:round;stroke-miterlimit:4;stroke-dasharray:none;stroke-opacity:1;paint-order:normal"
       id="rect828"
       width="613.83398"
       height="193.14584"
       x="-2.6458333"
       y="103.85416"
       inkscape:export-xdpi="93"
       inkscape:export-ydpi="93" />
    <path
       style="fill:#a05e75;fill-opacity:1;stroke:none;stroke-width:0.96152383px;stroke-linecap:butt;stroke-linejoin:miter;stroke-opacity:1"
       d="m 518.04883,117.78906 -88.69727,70.70313 -34.70898,132.40429 -70.70117,15.42579 -19.28125,28.27929 -66.84571,16.71289 -50.13476,-25.71093 -33.42188,87.41406 -3.85547,-26.9961 -11.57031,24.42383 -38.56445,-23.13867 c 0,0 -26.994136,12.85509 -34.707033,14.14063 -7.409874,1.23495 -70.4234096,14.97117 -75.5625,16.09179 v 96.85742 l 633.460933,45.16602 -0.54101,-11.35742 220.5918,-19.63086 1.96093,-42.40234 -53.90234,-57.24219 -54.88281,-33.92188 -27.44141,-50.88086 28.42188,-45.58203 1.95898,-34.98047 -33.32031,-3.18164 L 654.36328,201.33984 580,133.20898 v 13.67969 z"
       transform="matrix(0.26458333,0,0,0.26458333,0,107)"
       id="path1024-2"
       inkscape:connector-curvature="0" />
    <path
       style="fill:#a05e75;fill-opacity:1;stroke:none;stroke-width:0.99999994px;stroke-linecap:butt;stroke-linejoin:miter;stroke-opacity:1"
       d="m 1943.3848,78.193359 -41.8125,38.175781 -112.7129,-34.541015 -59.9922,34.541015 -0.7988,4.79102 -10.1836,8.62695 -56.1836,89.04297 -36.041,3.18164 2.121,34.98047 30.7403,45.58203 -29.6817,50.88086 -59.3613,33.92187 -58.3027,57.24219 2.1211,42.40234 153.873,12.66016 -31.0176,211.15625 621.7383,-1.81836 52.1114,-52.11133 V 195.80078 l -17.5704,-19.43945 -85.4433,139.98242 -67.2637,-39.99414 -107.2598,-147.25391 z"
       transform="matrix(0.26458333,0,0,0.26458333,0,107)"
       id="path1024"
       inkscape:connector-curvature="0" />
    <path
       style="fill:#e18c68;fill-opacity:1;stroke:none;stroke-width:0.99999994px;stroke-linecap:butt;stroke-linejoin:miter;stroke-opacity:1"
       d="m 1997.6406,407.02344 -96.4121,25.70898 -92.5547,38.56446 -72.0371,-15.16602 c -6.6469,-4.88466 -12.0369,-8.44135 -14.7969,-9.36133 -13.4918,-4.49737 -134.9218,10.49219 -134.9218,10.49219 l -74.9571,-29.98242 -89.9472,7.49609 -40.4766,46.47266 -46.4726,16.49023 -52.4688,-1.49805 -41.9746,38.97657 -124.4277,4.49804 16.4902,77.95313 L 1740,615.08984 v -7.1289 l 84.1895,110.14844 H 1982.627 L 2310,620.21094 V 407.85352 l -124.6797,17.16601 z"
       transform="matrix(0.26458333,0,0,0.26458333,0,107)"
       id="path875"
       inkscape:connector-curvature="0" />
    <path
       style="opacity:1;fill:#e18c68;fill-opacity:1;stroke:none;stroke-width:0.79217863;stroke-linecap:round;stroke-linejoin:round;stroke-miterlimit:4;stroke-dasharray:none;stroke-opacity:1;paint-order:normal"
       d="m 426.95643,210.53378 c -3.31796,0 -6.6354,2.36407 -6.9601,7.09122 h 13.9205 c -0.3247,-4.72715 -3.64244,-7.09122 -6.9604,-7.09122 z m 2.44525,3.80787 c 0.524,0 1.04815,0.41919 1.04815,1.25758 h -2.09599 c 0,-0.83839 0.52386,-1.25758 1.04784,-1.25758 z m -4.07192,4.01282 c -1.76173,-0.003 -3.54788,0.006 -5.35983,0.0393 -1.39732,0 -1.40602,1.37882 -0.009,1.37882 10e-4,0 0.008,0 0.009,0 v 12.59418 h 13.9733 v -12.57558 c 1.39731,0 1.39731,-1.39742 0,-1.39742 -2.80852,1e-5 -5.67725,-0.0349 -8.61347,-0.0393 z m -0.46931,2.13529 c 0.69866,0 1.39742,0.52407 1.39742,1.57206 v 2.79453 h -2.79454 v -2.79453 c 0,-1.04799 0.69846,-1.57206 1.39712,-1.57206 z"
       id="rect892-0"
       inkscape:connector-curvature="0" />
    <g
       id="g1110"
       transform="matrix(0.62857135,0,0,0.62857135,201.46136,79.244666)">
      <rect
         y="164.70833"
         x="542.39581"
         height="18.520834"
         width="55.5625"
         id="rect1022"
         style="opacity:1;fill:url(#linearGradient1030);fill-opacity:1;stroke:none;stroke-width:3;stroke-linecap:round;stroke-linejoin:round;stroke-miterlimit:4;stroke-dasharray:none;stroke-opacity:1;paint-order:normal" />
      <rect
         y="183.22916"
         x="542.39581"
         height="15.875"
         width="55.5625"
         id="rect1020"
         style="opacity:1;fill:#fcbb6d;fill-opacity:1;stroke:none;stroke-width:2.77746034;stroke-linecap:round;stroke-linejoin:round;stroke-miterlimit:4;stroke-dasharray:none;stroke-opacity:1;paint-order:normal" />
      <g
         transform="translate(-190.49999,-44.979165)"
         style="fill:#e18c68;fill-opacity:1"
         id="g1101">
        <path
           style="fill:#e18c68;fill-opacity:1;stroke:none;stroke-width:0.99999994px;stroke-linecap:butt;stroke-linejoin:miter;stroke-opacity:1"
           d="m 2750,218.10938 v 100 200 h 250 v -200 -100 l -20,100 -10,-60 -10,60 h -170 l -10,-50 -10,50 z m 45,130 c 8.31,0 15,6.68995 15,15 v 110 c 0,8.30999 -6.69,14.99999 -15,15 -8.31,0 -15,-6.69001 -15,-15 v -110 c 0,-8.31005 6.69,-15 15,-15 z m 50,0 c 8.31,0 15,6.68995 15,15 v 110 c 0,8.30997 -6.69,14.99999 -15,15 -8.31,0 -15,-6.69003 -15,-15 v -110 c 0,-8.31005 6.69,-15 15,-15 z m 60,0 c 8.31,0 15,6.68995 15,15 v 110 c 0,8.30995 -6.69,14.99999 -15,15 -8.31,0 -15,-6.69005 -15,-15 v -110 c 0,-8.31005 6.69,-15 15,-15 z m 50,0 c 8.31,0 15,6.68995 15,15 v 110 c 0,8.30993 -6.69,14.99999 -15,15 -8.31,0 -15,-6.69007 -15,-15 v -110 c 0,-8.31005 6.69,-15 15,-15 z m -215,180 -90,90 h 450 l -90,-90 z"
           transform="matrix(0.26458333,0,0,0.26458333,0,107)"
           id="path950"
           inkscape:connector-curvature="0" />
        <path
           style="fill:#e18c68;fill-opacity:1;stroke:none;stroke-width:0.99999994px;stroke-linecap:butt;stroke-linejoin:miter;stroke-opacity:1"
           d="m 2875,203.10938 c -37.5,0 -75,35.00001 -75,105 h 150 c 0,-69.99999 -37.5,-105.00001 -75,-105 z m -55,65 h 20 l -10,10 z m 40,0 h 30 l -15,10 z m 50,0 h 20 l -10,10 z"
           transform="matrix(0.26458333,0,0,0.26458333,0,107)"
           id="path952"
           inkscape:connector-curvature="0" />
        <ellipse
           style="opacity:1;fill:#e18c68;fill-opacity:1;stroke:none;stroke-width:3;stroke-linecap:round;stroke-linejoin:round;stroke-miterlimit:4;stroke-dasharray:none;stroke-opacity:1;paint-order:normal"
           id="path1040"
           cx="760.67706"
           cy="159.41667"
           rx="6.614583"
           ry="5.2916665" />
        <ellipse
           style="opacity:1;fill:#e18c68;fill-opacity:1;stroke:none;stroke-width:3;stroke-linecap:round;stroke-linejoin:round;stroke-miterlimit:4;stroke-dasharray:none;stroke-opacity:1;paint-order:normal"
           id="path1044"
           cx="760.67706"
           cy="153.59581"
           rx="3.96875"
           ry="2.6458333" />
      </g>
    </g>
    <path
       style="fill:#fcbb6d;fill-opacity:1;stroke:none;stroke-width:0.99999994px;stroke-linecap:butt;stroke-linejoin:miter;stroke-opacity:1"
       d="m 580,480.05469 v 3.45703 l -0.24805,-1.92969 C 465.34399,479.01105 430.63681,495.72107 322.65625,486.72266 237.00686,479.58521 60.232109,486.13366 -10,489.17383 v 195.43359 l 612.89062,-23.05859 -5.5996,-43.55274 c 246.83841,-3.05679 859.75298,-12.38037 920.77348,-30.27343 76.5618,-22.45032 -55.6498,-57.84921 -100.5469,-68.9961 -54.3433,-13.49215 -74.9577,-17.98878 -136.4219,-25.48437 -61.4641,-7.49564 -212.8757,4.49698 -260.8477,5.99609 -47.97185,1.49911 -181.394,-14.99084 -260.84761,-5.99609 C 704.00775,499.51307 641.32971,481.74323 580,480.05469 Z"
       transform="matrix(0.26458333,0,0,0.26458333,0,107)"
       id="path871"
       inkscape:connector-curvature="0" />
    <g
       id="g861"
       transform="translate(156.10433)">
      <path
         inkscape:connector-curvature="0"
         id="rect976"
         d="m 86.315301,149.47148 -7.275912,4.2946 4.679149,0.25656 -3.020671,1.59444 7.018963,0.38504 1.33792,7.70026 12.16267,13.57425 0.55286,0.61729 3.44544,1.36218 0.36034,4.12678 3.86977,4.31886 10.48955,-9.39856 -3.86978,-4.31887 -3.44549,-1.36261 -1.59444,-3.02068 -12.71552,-14.19154 -3.87021,-4.31881 z m -18.74195,3.77131 -19.805772,18.29934 3.659792,3.96126 19.805777,-18.29936 z m 37.010429,5.44436 -1.23414,1.10567 5.52874,6.17025 1.23414,-1.10568 z m -38.377547,4.99699 -7.922015,7.31997 13.056521,14.13186 -14.074734,12.61129 8.29284,9.25497 14.216352,-12.73744 15.10734,16.35134 13.111143,6.24306 -5.18869,-13.56308 -14.995575,-16.23021 11.685524,-10.47017 -8.292892,-9.2554 -11.827048,10.59717 z m -13.592025,31.14404 c -2.216963,0.29179 -5.630228,3.85826 -4.282654,5.36224 l 13.82121,15.42569 c 1.658545,1.85105 7.211923,-3.12488 5.553385,-4.97592 L 53.884997,195.21493 c -0.310979,-0.34708 -0.759184,-0.45408 -1.270789,-0.38675 z"
         style="opacity:1;fill:#fcbb6d;fill-opacity:1;stroke:none;stroke-width:0.93936151;stroke-linecap:round;stroke-linejoin:round;stroke-miterlimit:4;stroke-dasharray:none;stroke-opacity:1;paint-order:normal" />
      <text
         id="text836"
         y="195.72037"
         x="133.72751"
         style="font-style:normal;font-variant:normal;font-weight:normal;font-stretch:normal;font-size:3.52777767px;line-height:1.25;font-family:borsok;-inkscape-font-specification:borsok;letter-spacing:0px;word-spacing:0px;fill:#fcbb6d;fill-opacity:1;stroke:none;stroke-width:0.26458332"
         xml:space="preserve"><tspan
           style="font-style:normal;font-variant:normal;font-weight:normal;font-stretch:normal;font-size:42.33333206px;font-family:'Reem Kufi';-inkscape-font-specification:'Reem Kufi';letter-spacing:-1.34672916px;fill:#fcbb6d;fill-opacity:1;stroke-width:0.26458332"
           y="195.72037"
           x="133.72751"
           id="tspan834"
           sodipodi:role="line">Thorn</tspan></text>
      <path
         inkscape:connector-curvature="0"
         id="path838"
         d="M 132.29166,204.39583 H 240.77083"
         style="fill:none;stroke:#fcbb6d;stroke-width:5;stroke-linecap:round;stroke-linejoin:miter;stroke-miterlimit:3.79999995;stroke-dasharray:none;stroke-opacity:1" />
    </g>
    <path
       style="fill:#a05e75;fill-opacity:1;stroke:none;stroke-width:0.99999994px;stroke-linecap:butt;stroke-linejoin:miter;stroke-opacity:1"
       d="m 1334.5566,348.03516 -4.4961,190.38867 -23.9863,-44.97461 -11.9941,56.9668 -122.9278,-34.47852 -133.4218,37.47656 -118.43167,-5.99609 c 0,0 -86.94773,-20.98828 -94.44336,-20.98828 -7.49564,0 -121.42969,20.98828 -121.42969,20.98828 L 580,520.97656 v 1.56055 l -124.93945,-21.67383 -50.13282,38.56445 -56.5625,-7.71289 -77.1289,-32.13672 -102.83789,29.56641 -42.42188,46.27735 L 80.986328,550.99805 8.9980469,544.57031 -10.001953,543.875 V 718.10938 H 600.91016 1740 v -36.37891 l 3.1152,13.24023 L 2310,646.91016 V 488.48438 l -43.6934,-13.33008 -68.1308,28.28125 -29.5664,-30.85352 -41.1348,37.2793 -55.2754,30.85156 -24.4238,-34.70703 -7.7129,42.41992 -39.8496,-87.41211 -18,82.27149 -10.2813,-24.42383 -16.7128,17.99609 -8.9981,-34.70898 -33.4219,15.42578 -68.1308,-10.2832 L 1740,529.17578 v -1.9414 l -24.666,-2.30274 -29.9824,-49.4707 -143.9161,8.99414 -41.9746,-38.97656 -38.9765,29.98242 -8.9961,59.96484 -46.4727,13.49219 -35.9785,-121.42969 -1.5,37.47852 z"
       transform="matrix(0.26458333,0,0,0.26458333,0,107)"
       id="path867"
       inkscape:connector-curvature="0" />
    <path
       style="opacity:1;fill:#a05e75;fill-opacity:1;stroke:none;stroke-width:1.14328253;stroke-linecap:round;stroke-linejoin:round;stroke-miterlimit:4;stroke-dasharray:none;stroke-opacity:1;paint-order:normal"
       d="m 232.67471,221.74208 c 5.01353,0 10.02626,3.25872 10.51689,9.77484 h -21.03424 c 0.49062,-6.51612 5.50382,-9.77484 10.51735,-9.77484 z m -3.69485,5.24893 c -0.79177,0 -1.58378,0.57782 -1.58378,1.7335 h 3.16709 c 0,-1.15568 -0.79155,-1.7335 -1.58331,-1.7335 z m 6.15279,5.53144 c 2.66202,-0.005 5.36094,0.008 8.09884,0.0543 2.11139,0 2.12454,1.90061 0.0131,1.90061 -0.002,0 -0.0114,0 -0.0131,0 v 17.36036 h -21.11403 v -17.33483 c -2.11137,0 -2.11137,-1.92625 0,-1.92625 4.24374,0 8.57848,-0.0482 13.01519,-0.0543 z m 0.70914,2.94337 c -1.05569,0 -2.11154,0.7224 -2.11154,2.16698 v 3.85211 h 4.22262 v -3.85211 c 0,-1.44458 -1.05539,-2.16698 -2.11108,-2.16698 z"
       id="rect892-2"
       inkscape:connector-curvature="0" />
    <path
       style="fill:#3a4b63;fill-opacity:1;stroke:none;stroke-width:0.99999994px;stroke-linecap:butt;stroke-linejoin:miter;stroke-opacity:1"
       d="M -10,-11.890625 V 166.0918 l 6.1425781,8.25976 24.4257809,88.69922 -5.142578,-89.98437 16.710938,79.69921 1.285156,25.70899 3.857422,59.13086 14.140625,-46.27735 12.855469,-57.8457 31.021484,-56.52344 34.537105,-93.876949 12.45704,-37.542969 23.04492,142.593748 16.99218,-134.771482 1.96094,63.763672 30.38672,-88.033203 26.99414,37.279297 69.41602,-6.427735 15.42578,16.710938 6.42773,-65.560547 48.84961,79.701172 -5.14258,-42.421875 14.14063,57.847653 14.14062,61.70313 1.28516,-83.556642 15.42578,110.550782 16.71094,80.98633 2.57031,-111.83789 c 0,0 15.42578,-73.272132 15.42578,-78.414066 0,-5.141934 15.42578,-19.28125 15.42578,-19.28125 L 533.47461,45.802734 560.4707,0.81054688 580,161.63867 v 18.69141 l 10,28.07812 12.74219,-88.44922 11.24414,1.5 c 0,0 6.74609,-13.4933 6.74609,-18.74023 0,-5.246929 13.49219,-41.224609 13.49219,-41.224609 l 18.73828,50.968749 6.74609,-11.99219 2.24805,-51.7207 0.75,20.238281 c 0,0 8.2461,-5.996323 8.24609,-9.74414 0,-3.747818 2.24805,-27.732422 2.24805,-27.732422 L 688.19336,-5.2167969 709.92969,49.5 766.14648,29.261719 c 0,0 8.99594,-23.9852122 18.74024,-18.738281 9.7443,5.246925 53.96875,23.236328 53.96875,23.236328 l 51.71875,-11.992188 4.49805,21.736328 26.23437,5.246094 v -7.494141 l 8.99414,-8.996093 V 18.019531 l 37.9707,24.357422 14.90625,25.373047 25.02537,14.132812 12.6446,28.460938 2.998,24.73633 10.4941,-8.9961 1.5215,-37.478511 15.7188,-19.199219 13.5449,-33.130859 36.0762,-27.2519535 7.4961,19.4902345 L 1138.6797,48.75 1184.4023,21.767578 1218.8828,49.5 1269.1035,27.013672 1287.0938,8.2753906 c 0,0 2.998,15.7400194 2.998,18.7382814 0,2.998223 10.4941,-14.242188 10.4941,-14.242188 l 13.4922,25.486328 26.2344,-15.742187 14.9902,-12.7421875 c 0,0 11.9927,27.7341605 12.7422,30.7324215 0.7496,2.998262 29.2344,11.244141 29.2344,11.244141 l 14.9902,-5.248047 2.9981,-15.740234 14.2422,-23.2363284 100.4414,67.4609374 4.498,-29.982422 23.2363,8.244141 59.9649,-24.734375 c 0,0 59.1978,1.979633 59.9473,7.226562 0.7496,5.246929 28.8804,13.90884 28.1308,18.40625 -0.7496,4.49737 -14.9902,25.486115 -14.9902,28.484375 0,2.99826 13.4922,35.978511 13.4922,35.978521 0,0 34.4804,-11.17597 34.4804,39.72656 0,0 16.4893,5.99788 17.9883,8.99609 0.8219,1.64362 10.6013,1.69575 19.3164,1.41992 l 2.8457,3.06446 -2.5605,-3.07032 c 0.019,-6.3e-4 0.039,-9e-4 0.059,-0.002 l -1.668,-8.28516 c 1.408,-18.86299 7.7167,-75.511645 31.4395,-39.54492 28.1782,42.72174 29.9961,3.63672 29.9961,3.63672 l 7.2714,-89.98828 8.1817,29.996094 29.0859,-65.44726588 V 76.375 l 17.2715,-44.539062 43.6309,16.361328 7.2714,-10 3.6348,-27.267578 6.3633,21.814453 12.7266,-16.361329 15.4511,9.089844 22.7246,3.634766 6.3633,-17.269531 28.1777,28.177734 2.7266,19.998047 10,-40.904297 -1.8183,72.71875 22.7246,-73.626953 6.3632,9.998047 29.086,-25.4511721 69.9922,10.9082031 24.541,15.451172 49.0859,31.814453 29.9961,-45.449219 7.2715,41.814453 15.752,7.714844 V -11.890625 H 1724.2637 600.24609 Z"
       transform="matrix(0.26458333,0,0,0.26458333,0,107)"
       id="path846"
       inkscape:connector-curvature="0" />
    <path
       style="fill:none;stroke:none;stroke-width:0.26458332px;stroke-linecap:butt;stroke-linejoin:miter;stroke-opacity:1"
       d="m 153.09266,234.89205 -14.43838,6.41705 c 0,0 -0.91672,4.58362 -1.83344,4.58362 -0.91673,0 -11.9174,-6.18788 -11.9174,-6.18788 l -7.56296,1.37508 -6.87542,-11.00067 -26.355768,23.37643 -4.354433,-4.58361 -2.062626,1.37508 -0.229179,-7.56296 -4.125251,8.47968 -1.145905,-4.58361 -5.500333,20.62626 -3.896072,-0.45837 -1.145902,4.58362 -28.87676,-14.66756 -5.500335,7.33378 -1.145904,-2.29181 -12.375754,8.47968 c 0,0 -10.083948,19.022 -10.083948,17.64691 0,-1.37508 0,-22.00134 0,-22.00134 l -10.542309,-11.22985 -5.500335,65.77484 177.844164,-7.33378 z"
       id="path872"
       inkscape:connector-curvature="0" />
    <path
       style="fill:#685d79;fill-opacity:1;stroke:none;stroke-width:0.99999994px;stroke-linecap:butt;stroke-linejoin:miter;stroke-opacity:1"
       d="m 2220.0293,507.29102 -20.5684,39.8496 -88.6972,24.42383 -69.416,30.85157 -82.2715,-5.14063 -56.5606,20.56641 -61.7051,-44.99024 L 1740,535.51367 v -4.73437 c -23.9916,8.39316 -55.1384,20.94896 -72.0234,34.45703 -29.9825,23.98598 -50.9688,55.46679 -50.9688,55.46679 l -83.9512,10.49415 -1.5,-38.97657 h -109.4355 l -52.4688,-4.49804 c 0,0 -140.9184,61.46484 -148.414,61.46484 -7.4956,0 -73.4567,-41.9761 -79.4531,-47.97266 -5.9966,-5.99641 -89.9473,-10.49414 -89.9473,-10.49414 L 963.38867,625.20117 816.47461,622.20312 795.48633,592.2207 693.54688,605.71289 580,519.13477 V 548.6543 L 488.76953,541.71289 414.04492,598.0625 278.07227,571.11133 137.19727,599.28711 66.148438,598.0625 -10,575.61719 V 718.10938 H 591.23438 1685.3613 2310.002 V 536.7207 l -21.8418,-15.28906 -24.4239,7.71289 z"
       transform="matrix(0.26458333,0,0,0.26458333,0,107)"
       id="path876"
       inkscape:connector-curvature="0" />
    <path
       style="opacity:1;fill:#685d79;fill-opacity:1;stroke:none;stroke-width:1.55491936;stroke-linecap:round;stroke-linejoin:round;stroke-miterlimit:4;stroke-dasharray:none;stroke-opacity:1;paint-order:normal"
       d="m 297.05936,230.88254 c -6.51263,0 -13.02422,4.64028 -13.66155,13.91893 h 27.32368 c -0.63732,-9.27865 -7.14951,-13.91893 -13.66213,-13.91893 z m 4.79964,7.47424 c 1.02852,0 2.05734,0.8228 2.05734,2.46843 h -4.11408 c 0,-1.64563 1.02824,-2.46843 2.05674,-2.46843 z m -7.99254,7.87652 c -3.45799,-0.006 -6.96391,0.0114 -10.52047,0.0772 -2.74272,0 -2.75979,2.70639 -0.0171,2.70639 0.002,0 0.0149,0 0.0171,0 v 24.72036 h 27.42733 v -24.68384 c 2.7427,0 2.7427,-2.74291 0,-2.74291 -5.51266,1e-5 -11.14352,-0.0686 -16.90686,-0.0772 z m -0.92118,4.19122 c 1.37136,0 2.74292,1.02868 2.74292,3.0857 v 5.48523 h -5.48523 v -5.48523 c 0,-2.05702 1.37097,-3.0857 2.74231,-3.0857 z"
       id="rect892"
       inkscape:connector-curvature="0" />
    <path
       style="opacity:1;fill:#685d79;fill-opacity:1;stroke:none;stroke-width:1.55491936;stroke-linecap:round;stroke-linejoin:round;stroke-miterlimit:4;stroke-dasharray:none;stroke-opacity:1;paint-order:normal"
       d="m 134.69047,219.03806 c -6.51263,0 -13.02422,4.64028 -13.66155,13.91893 h 27.32367 c -0.63732,-9.27865 -7.14951,-13.91893 -13.66212,-13.91893 z m 4.79963,7.47424 c 1.02852,0 2.05734,0.8228 2.05734,2.46843 h -4.11407 c 0,-1.64563 1.02824,-2.46843 2.05673,-2.46843 z m -7.99253,7.87652 c -3.45799,-0.006 -6.96391,0.0114 -10.52047,0.0772 -2.74272,0 -2.75979,2.70639 -0.0171,2.70639 0.002,0 0.0149,0 0.0171,0 v 24.72036 h 27.42732 v -24.68384 c 2.7427,0 2.7427,-2.74291 0,-2.74291 -5.51266,1e-5 -11.14351,-0.0686 -16.90685,-0.0772 z m -0.92118,4.19122 c 1.37136,0 2.74292,1.02868 2.74292,3.0857 v 5.48523 h -5.48523 v -5.48523 c 0,-2.05702 1.37097,-3.0857 2.74231,-3.0857 z"
       id="rect892-6"
       inkscape:connector-curvature="0" />
    <path
       style="opacity:1;fill:#685d79;fill-opacity:1;stroke:none;stroke-width:1.55491936;stroke-linecap:round;stroke-linejoin:round;stroke-miterlimit:4;stroke-dasharray:none;stroke-opacity:1;paint-order:normal"
       d="m 587.04654,214.95665 c -6.51263,0 -13.02422,4.64028 -13.66155,13.91893 h 27.32367 c -0.63732,-9.27865 -7.14951,-13.91893 -13.66212,-13.91893 z m 4.79963,7.47424 c 1.02852,0 2.05734,0.8228 2.05734,2.46843 h -4.11407 c 0,-1.64563 1.02824,-2.46843 2.05673,-2.46843 z m -7.99253,7.87652 c -3.45799,-0.006 -6.96391,0.0114 -10.52047,0.0772 -2.74272,0 -2.75979,2.70639 -0.0171,2.70639 0.002,0 0.0149,0 0.0171,0 v 24.72036 h 27.42732 v -24.68384 c 2.7427,0 2.7427,-2.74291 0,-2.74291 -5.51266,1e-5 -11.14351,-0.0686 -16.90685,-0.0772 z m -0.92118,4.19122 c 1.37136,0 2.74292,1.02868 2.74292,3.0857 v 5.48523 h -5.48523 v -5.48523 c 0,-2.05702 1.37097,-3.0857 2.74231,-3.0857 z"
       id="rect892-6-8"
       inkscape:connector-curvature="0" />
    <path
       style="fill:#3a4b63;fill-opacity:1;stroke:none;stroke-width:0.99999994px;stroke-linecap:butt;stroke-linejoin:miter;stroke-opacity:1"
       d="m 1742.7148,503.92969 -11.8691,88.56836 -11.2578,-1.38672 c 0,0 -6.6123,13.55802 -6.5606,18.80469 0.052,5.2467 -13.0859,41.35546 -13.0859,41.35546 l -19.2402,-50.7832 -6.627,12.0586 -1.7402,51.74023 -0.9492,-20.23047 c 0,0 -8.1854,6.07854 -8.1485,9.82617 0.038,3.74759 -1.9746,27.75391 -1.9746,27.75391 l -14.4687,36.47266 H 2310 v -38.89454 l -9.2754,3.53516 -57.2656,-16.36133 -8.1817,-12.72656 -5.4531,20.90625 -9.0898,-8.17969 c 0,0 -73.6275,-3.63672 -79.9903,-3.63672 -6.3628,0 -6.3632,18.17969 -6.3632,18.17969 l -7.2715,-23.63281 -1.8164,19.08789 -10,-54.53906 -5.4532,49.08593 -6.3632,-7.27343 -9.0899,13.63476 -45.4492,1.81836 -2.7266,-19.99805 -56.3554,-12.72461 -15.4532,-2.72656 -39.9941,29.08594 -3.6367,-2.72656 -3.6348,-14.54297 -29.998,7.27148 -25.4512,-21.81445 -22.7227,45.44727 -4.5449,-43.63086 -6.3633,-7.27149 -7.2714,52.7207 -5.4551,-19.08789 -6.3613,-17.27148 -3.6368,19.99805 -21.8144,-56.35742 v 29.99609 l -4.5449,-7.27149 -9.0899,6.36329 -12.5019,-49.22266 v -0.12109 l -4.6387,-36.7754 z m -1146.59371,15.54687 -26.30664,25.31446 v 37.9746 l -53.90039,22.05079 c 0,0 3.91048,48.14216 -3.43945,49.36718 C 505.12471,655.40854 450,670.10937 450,670.10938 l -46.54883,-6.125 -8.57422,-100.44922 -3.67578,80.84961 -7.34961,-18.375 -19.59961,39.19921 -55.125,-29.40039 4.90039,-22.04882 -25.72461,-13.47461 h -35.52539 l -13.47461,19.59961 -39.19921,17.15039 v 25.72461 l -34.29883,11.02343 -33.07617,-9.79882 -4.89844,-31.84961 -15.92578,50.22461 v -19.59961 l -26.949222,34.29882 -31.849609,-33.07421 -1.22461,-26.94922 -61.882812,-7.87696 v 88.95118 H 1646.4688 l -22.1114,-54.09961 -56.0156,20.79101 c 0,0 -8.7573,24.07453 -18.5527,18.92383 -9.7956,-5.15067 -54.1954,-22.70313 -54.1953,-22.70313 l -51.5997,12.50196 -4.7109,-21.69336 -26.2852,-4.98828 0.074,7.49609 -8.9063,9.08203 0.1406,14.24219 -27.7148,-31.85352 -18.1543,-20.72656 -24.0371,-12.01172 -21.5449,-26.83593 -3.2422,-24.70508 -10.4043,9.09765 -6.7735,24.37305 -9.9082,13.73242 -13.2187,-10.96094 -24.9375,9.99024 -20.0547,-12.29297 -61.6621,16.03711 -12.4746,64.91211 -18.2598,-31.89063 -51.4961,4.99219 -32.7949,41.40235 c 0,0 -3.1541,-15.71084 -3.1836,-18.70899 -0.03,-2.99807 -10.3535,14.34375 -10.3535,14.34375 l -13.7422,-25.35156 -26.07812,16 -14.86523,12.88867 c 0,0 -12.26585,-27.61473 -13.04492,-30.60547 -0.77908,-2.99074 -29.3418,-10.95508 -29.3418,-10.95508 l -14.93945,5.39453 -2.8418,15.76954 -14.01367,23.37695 -101.09961,-66.46875 -4.20312,30.02539 -23.31641,-8.01563 -62.74024,2.91993 c 0,0 -40.82178,-18.1279 -41.62304,-23.36719 -0.80119,-5.23926 0.79098,-24.13021 1.49609,-28.63477 0.70526,-4.50455 -35.73025,-12.83196 -35.75976,-15.83008 -0.0302,-2.9981 15.83593,-34.78515 15.83593,-34.78515 L 618.94531,529.5332 c 0,0 -16.54957,-5.83303 -18.07812,-8.8164 -0.336,-0.65609 -2.16778,-1.03406 -4.7461,-1.24024 z"
       transform="matrix(0.26458333,0,0,0.26458333,0,107)"
       id="path846-8"
       inkscape:connector-curvature="0" />
  </g>
</svg>
